<?xml version="1.0" standalone="no"?>
<!DOCTYPE svg PUBLIC "-//W3C//DTD SVG 20010904//EN"
 "http://www.w3.org/TR/2001/REC-SVG-20010904/DTD/svg10.dtd">
<svg version="1.0" xmlns="http://www.w3.org/2000/svg"
 width="2285.000000pt" height="2285.000000pt" viewBox="0 0 2285.000000 2285.000000"
 preserveAspectRatio="xMidYMid meet">

<g transform="translate(0.000000,2285.000000) scale(0.100000,-0.100000)"
fill="#000000" stroke="none">
<path d="M11765 22570 c-4 -6 -56 -10 -123 -10 -365 -1 -1630 -69 -1952 -105
-69 -7 -262 -27 -430 -45 -555 -56 -1449 -184 -1685 -240 -44 -10 -98 -22
-120 -25 -49 -8 -298 -58 -420 -84 -187 -40 -624 -150 -760 -191 -60 -18 -141
-42 -180 -52 -77 -22 -524 -172 -705 -237 -97 -35 -387 -154 -510 -208 -95
-43 -461 -228 -581 -295 -236 -132 -489 -297 -649 -423 -36 -28 -75 -58 -86
-66 -12 -7 -73 -57 -135 -110 -180 -152 -426 -402 -536 -545 -96 -124 -176
-239 -250 -359 -47 -77 -93 -151 -103 -165 -31 -47 -168 -335 -190 -400 -12
-36 -35 -96 -51 -135 -35 -85 -100 -305 -129 -435 -11 -52 -24 -108 -29 -125
-5 -16 -17 -101 -27 -189 -13 -120 -14 -160 -5 -165 6 -4 9 -15 5 -24 -4 -12
-1 -17 12 -17 13 0 15 -3 7 -11 -14 -14 6 -39 31 -39 9 0 16 -7 16 -15 0 -8 7
-15 15 -15 9 0 18 -7 21 -15 4 -10 13 -13 26 -9 13 4 18 2 14 -5 -9 -13 15
-51 32 -51 8 0 12 -6 9 -12 -6 -18 12 -50 24 -43 5 4 9 2 9 -3 0 -15 85 -39
106 -31 10 4 13 8 7 8 -7 1 -13 6 -13 12 0 12 26 5 78 -18 17 -9 32 -21 32
-28 0 -7 11 -15 24 -17 26 -5 58 22 53 45 -1 8 10 12 35 11 26 -1 35 3 31 12
-2 7 6 18 19 24 19 10 21 10 10 -1 -18 -19 -15 -29 9 -29 15 0 19 5 15 15 -8
23 22 30 43 11 14 -12 24 -14 42 -7 13 5 18 10 10 10 -11 1 -8 7 8 22 12 11
29 18 37 15 8 -3 14 1 14 10 0 13 7 15 34 10 19 -4 37 -2 41 3 3 6 11 8 18 6
14 -5 53 22 45 30 -10 10 53 65 73 65 22 0 49 22 49 39 0 7 8 7 25 1 22 -8 24
-7 22 13 -1 15 3 21 12 19 8 -2 26 0 40 4 24 6 25 7 6 14 -19 8 -19 9 1 9 12
1 25 8 28 17 3 8 11 12 16 9 16 -10 61 40 54 59 -5 13 1 16 34 16 28 0 42 5
46 17 5 12 9 14 18 5 17 -17 44 -15 74 5 20 12 24 22 19 40 -5 20 -2 24 12 21
10 -2 19 -10 19 -18 1 -8 2 -19 3 -25 1 -5 10 0 21 13 10 13 25 22 32 21 29
-3 39 2 36 19 -6 39 28 55 57 26 14 -15 18 -15 50 0 19 9 48 18 65 19 31 2 40
12 18 20 -7 2 -9 8 -5 13 4 4 16 3 27 -4 12 -7 21 -8 25 -2 12 19 26 10 20
-11 l-7 -22 29 21 c18 13 40 19 59 17 16 -1 35 2 42 7 7 6 32 8 57 6 30 -4 51
-1 66 10 23 16 208 35 222 22 5 -4 25 1 45 11 20 11 42 19 48 19 7 0 15 7 18
16 5 13 9 14 21 4 13 -11 18 -10 30 6 12 17 14 18 20 2 5 -13 12 -15 31 -7 44
16 86 20 99 9 10 -8 16 -7 23 6 5 10 16 19 23 21 59 13 123 21 136 16 10 -4
14 -2 10 4 -7 12 26 46 36 37 3 -3 16 1 29 10 28 20 42 20 34 1 -8 -21 7 -19
37 5 27 22 47 26 47 10 0 -5 4 -10 10 -10 5 0 7 7 4 15 -4 9 0 15 10 15 9 0
16 -4 16 -10 0 -5 7 -10 15 -10 18 0 20 17 3 23 -7 2 -2 8 12 11 16 4 37 1 55
-8 43 -23 58 -21 45 4 -10 19 -6 25 14 21 18 -4 55 9 69 23 12 13 18 13 42 0
34 -18 32 -18 39 11 6 22 9 23 32 15 23 -9 25 -8 22 13 -2 18 2 22 22 23 42 1
79 22 86 48 6 27 39 32 59 9 13 -15 53 -12 64 6 7 10 13 11 29 2 30 -16 34
-14 26 12 l-6 22 19 -22 c21 -24 43 -30 43 -12 0 6 9 8 20 4 12 -4 28 -1 37 7
12 9 15 9 9 1 -10 -17 4 -16 28 2 17 13 21 12 32 -3 14 -19 22 -15 27 14 10
52 37 68 37 22 0 -18 4 -20 31 -14 17 3 37 6 45 6 7 0 16 10 20 22 6 20 8 20
19 5 15 -22 32 -22 53 0 14 14 17 14 20 2 4 -24 40 -41 61 -30 12 7 22 6 30
-2 6 -6 43 -12 81 -14 57 -2 68 1 63 13 -4 10 2 13 21 12 14 -1 26 -5 26 -8 0
-3 14 -14 32 -24 28 -17 32 -18 43 -3 10 15 13 15 27 1 13 -13 20 -14 38 -4
12 7 19 17 16 26 -3 8 1 14 9 14 21 0 27 -17 9 -24 -27 -10 -4 -26 31 -22 19
3 39 7 44 10 6 4 15 -3 21 -14 9 -17 14 -18 32 -7 16 9 22 9 25 0 5 -15 41
-17 62 -4 7 5 10 14 7 20 -4 6 -1 11 8 11 8 0 21 3 29 6 11 4 16 -2 19 -18 4
-28 41 -36 64 -14 28 29 76 10 66 -26 -5 -21 21 -24 64 -8 21 9 29 7 40 -7 11
-15 15 -15 23 -4 7 10 18 8 56 -13 35 -20 55 -25 80 -20 42 8 74 -9 87 -47 13
-37 32 -38 25 -2 -6 33 8 63 28 63 13 0 13 -3 3 -20 -10 -15 -10 -22 0 -32 10
-10 15 -10 20 -1 4 6 25 14 47 17 31 5 35 4 18 -3 -14 -6 -23 -19 -23 -32 0
-21 1 -21 18 -6 11 10 36 17 62 17 25 0 47 6 54 14 6 8 29 16 51 18 36 3 40 1
40 -19 0 -13 6 -28 13 -35 7 -7 12 -18 12 -25 0 -30 18 -10 24 27 4 26 11 40
21 40 12 0 13 -4 6 -19 -8 -15 -7 -21 7 -27 22 -9 55 -5 64 9 4 7 11 7 22 -2
8 -7 24 -10 35 -6 11 3 29 1 40 -4 25 -14 38 3 21 24 -16 19 1 19 26 0 10 -8
22 -15 27 -15 12 0 8 38 -5 43 -9 3 -10 8 -3 15 12 13 27 5 43 -23 11 -19 11
-19 12 -1 0 16 5 18 45 13 36 -5 45 -4 45 8 0 9 9 15 24 15 13 0 31 11 42 24
l18 25 15 -22 15 -21 6 22 c3 13 10 22 15 20 6 -2 9 -7 7 -11 -1 -5 2 -6 8 -2
5 3 10 13 10 21 0 17 16 19 26 3 4 -7 0 -16 -9 -21 -9 -5 -14 -15 -11 -23 7
-16 19 -6 41 32 13 22 1 43 -24 43 -7 0 -13 5 -13 11 0 6 8 8 18 5 46 -13 87
-11 90 6 2 13 -5 17 -35 20 l-38 3 35 17 c29 14 36 15 42 3 9 -15 42 -9 59 11
16 19 3 30 -16 14 -12 -10 -16 -9 -21 4 -9 25 4 52 18 38 7 -7 20 -12 30 -12
10 0 18 -4 18 -10 0 -5 7 -10 16 -10 10 0 14 -6 11 -15 -11 -26 10 -25 34 3
14 15 25 32 25 37 1 6 17 18 36 28 31 17 53 64 25 54 -7 -2 -11 -13 -10 -23 1
-10 0 -14 -3 -7 -3 7 -12 9 -21 6 -12 -5 -10 2 7 25 30 41 60 49 60 16 l0 -25
33 25 c26 20 36 23 45 14 9 -9 12 -9 12 0 0 6 -9 16 -20 22 -23 12 -17 35 7
26 8 -3 21 1 29 9 14 13 14 16 0 21 -17 7 -22 34 -6 34 6 0 10 -7 10 -15 0
-19 38 -19 63 -1 20 16 23 28 4 20 -8 -3 -19 2 -26 9 -9 12 -8 16 4 21 8 3 15
17 15 31 0 20 5 25 26 25 16 0 24 5 22 12 -6 16 36 38 69 38 33 0 21 -16 -19
-25 -18 -4 -27 -9 -20 -12 6 -2 12 -11 12 -19 0 -22 16 -17 39 13 13 15 19 34
16 45 -5 15 -1 18 30 18 28 0 36 4 32 14 -7 19 21 42 45 38 11 -2 18 3 18 13
0 8 7 18 15 21 20 8 19 34 -1 34 -10 0 -14 -6 -10 -15 6 -18 -29 -21 -39 -4
-11 16 23 47 74 66 53 20 81 41 81 61 0 9 6 12 16 8 9 -3 17 -6 20 -6 2 0 1
-7 -2 -15 -4 -9 0 -15 10 -15 9 0 16 5 16 10 0 6 9 10 20 10 11 0 20 7 20 15
0 8 -4 15 -10 15 -5 0 -10 5 -10 10 0 6 7 10 15 10 8 0 15 9 15 20 0 11 5 20
11 20 7 0 9 -9 6 -21 -4 -14 -2 -18 6 -11 7 5 28 9 46 9 21 0 37 5 39 13 8 22
64 70 75 63 6 -4 4 -11 -5 -17 -8 -6 -13 -17 -10 -24 2 -8 16 -3 42 18 21 17
52 33 69 36 17 4 31 11 31 16 0 6 6 5 14 -1 12 -10 18 -6 32 21 9 18 19 28 21
22 5 -16 -15 -64 -27 -64 -5 0 -10 -4 -10 -10 0 -21 31 -12 110 31 55 30 119
59 143 65 15 3 27 10 27 15 0 5 4 9 10 9 5 0 7 -7 4 -15 -4 -8 -4 -15 -1 -15
14 0 57 24 57 31 0 5 7 6 15 3 9 -4 15 0 15 9 0 9 -8 18 -17 21 -10 2 -1 2 21
-1 25 -4 41 -1 46 7 9 15 100 5 100 -11 0 -14 27 -11 33 5 3 8 -1 17 -9 20
-21 8 -14 50 9 54 12 2 17 -3 17 -18 0 -12 5 -18 10 -15 6 3 10 15 10 26 0 10
7 19 15 19 8 0 15 -4 15 -10 0 -5 13 -7 31 -3 25 5 31 2 36 -15 2 -11 14 -23
26 -26 28 -7 36 3 14 18 -23 17 -22 33 3 41 24 8 40 -1 40 -21 0 -12 7 -14 30
-9 20 4 30 3 30 -5 0 -8 9 -10 25 -6 14 4 25 2 25 -4 0 -5 5 -10 11 -10 7 0 8
11 4 30 -4 20 -3 30 5 30 8 0 11 10 7 30 -4 16 -2 32 3 35 5 3 7 0 5 -7 -4
-10 4 -14 29 -15 22 -1 37 4 40 13 4 12 10 12 26 4 16 -9 22 -8 26 5 3 8 14
15 24 15 10 0 21 10 25 23 4 14 8 18 12 9 3 -8 0 -19 -6 -25 -15 -15 -14 -27
4 -27 8 0 15 6 15 14 0 16 38 32 48 21 4 -4 1 -10 -5 -12 -7 -3 -13 -14 -13
-25 0 -17 3 -18 15 -8 8 7 15 23 15 37 0 17 5 24 18 22 36 -3 44 1 39 21 -5
20 15 45 26 33 4 -3 7 -17 7 -30 0 -12 5 -23 11 -23 6 0 8 7 5 16 -3 9 -6 26
-6 39 0 16 -5 22 -17 21 -12 0 -19 7 -21 22 -3 19 1 22 27 22 21 0 31 -5 31
-15 0 -8 5 -15 10 -15 6 0 10 4 10 10 0 5 6 7 14 4 8 -3 12 -13 9 -25 -4 -15
0 -19 21 -19 19 0 25 4 20 12 -5 7 -9 20 -9 30 -1 13 4 16 27 11 24 -5 28 -2
28 17 0 19 -3 20 -15 10 -8 -6 -19 -9 -25 -5 -20 12 -10 25 20 25 18 0 29 5
28 12 -2 7 8 14 22 16 24 4 24 3 7 -15 -24 -27 -21 -36 7 -29 26 6 52 -15 41
-34 -9 -14 18 -13 33 2 18 18 15 28 -8 28 -11 0 -20 4 -20 9 0 21 23 22 56 5
29 -16 36 -17 43 -5 12 18 3 41 -15 41 -8 0 -14 5 -14 10 0 13 23 13 35 1 6
-5 24 -11 40 -13 18 -2 30 -9 30 -17 0 -24 23 -23 27 1 2 18 12 25 45 32 54
12 66 36 18 36 -30 0 -35 3 -35 24 0 20 4 23 21 19 18 -5 20 -3 15 14 -5 16
-1 22 15 26 23 6 81 -24 60 -31 -7 -2 -18 4 -26 14 -15 21 -16 21 -37 -23
l-16 -32 57 2 c33 1 60 7 67 16 6 7 25 14 44 15 18 1 36 8 38 15 4 11 6 11 13
0 6 -11 12 -9 28 8 23 24 18 33 -19 33 -15 0 -33 7 -40 15 -11 14 -10 14 16 5
31 -12 78 -5 69 10 -3 6 -1 10 5 10 7 0 21 10 31 23 18 20 19 20 17 3 -4 -26
61 -42 112 -27 62 18 100 21 100 9 0 -6 3 -9 6 -5 11 11 -20 66 -41 70 -11 2
0 5 25 6 57 1 90 -8 90 -24 0 -12 20 -12 60 2 11 4 9 7 -7 14 -13 4 -23 16
-23 25 0 13 -7 15 -40 9 -42 -7 -57 8 -20 20 11 3 20 11 20 16 0 5 14 9 30 9
26 0 30 -4 30 -26 0 -22 2 -25 15 -14 8 7 15 19 15 26 0 8 13 17 29 20 20 4
28 11 24 20 -8 21 31 17 58 -6 13 -10 18 -19 12 -20 -21 0 -15 -20 5 -20 27 0
34 11 18 29 -23 27 -30 61 -11 61 8 0 18 -7 21 -15 7 -18 25 -20 22 -2 -4 15
43 11 53 -5 12 -18 41 11 34 33 -5 14 -1 19 14 19 14 0 21 8 23 28 3 30 29 33
55 6 17 -16 52 -19 54 -4 1 6 2 16 3 22 1 15 72 28 84 16 5 -5 21 -4 38 3 16
6 40 11 53 10 19 -1 22 3 18 19 -3 10 1 24 9 31 13 11 26 8 88 -17 14 -5 17
-4 12 5 -8 12 10 41 26 41 5 0 8 -7 6 -17 -2 -11 7 -19 25 -24 24 -6 28 -5 23
8 -10 24 24 49 77 57 38 6 46 5 41 -7 -3 -9 2 -13 18 -12 13 1 24 9 26 18 2
12 -1 15 -12 11 -11 -4 -16 0 -16 14 0 33 20 37 47 8 23 -25 26 -26 42 -12 10
9 20 13 24 10 4 -4 17 0 30 9 12 8 34 13 47 11 14 -2 34 -5 45 -6 13 -2 20 3
19 12 -1 9 7 16 17 16 11 0 19 -6 19 -13 0 -14 12 -17 24 -6 4 4 32 6 62 5 31
-1 54 2 54 8 0 6 8 10 18 9 10 0 12 -3 4 -6 -6 -2 -10 -9 -6 -14 3 -5 13 0 23
13 l18 21 34 -24 c34 -24 59 -30 70 -16 10 13 109 25 116 14 4 -6 1 -13 -5
-15 -17 -5 -15 -29 3 -36 9 -3 15 0 15 9 0 21 19 28 37 13 15 -11 16 -11 10 4
-8 22 9 33 27 19 7 -6 20 -9 29 -5 8 3 18 1 22 -5 10 -16 25 -13 25 5 0 10 6
14 14 11 8 -3 29 -2 46 3 24 7 32 6 37 -6 3 -7 11 -14 19 -14 11 0 14 17 14
73 0 90 28 152 81 181 40 22 94 17 128 -12 44 -36 75 -185 47 -230 -3 -5 1
-13 10 -16 23 -9 24 -8 17 12 -6 14 -4 15 9 4 14 -11 19 -10 32 9 12 18 26 22
78 24 35 1 71 6 82 10 13 6 21 3 28 -8 11 -20 38 -11 38 13 0 15 11 20 56 26
33 4 58 12 61 20 3 8 13 14 22 15 9 0 -1 7 -22 14 -101 37 -167 113 -167 191
0 36 5 47 35 73 29 25 44 31 83 31 73 -1 121 -28 200 -118 39 -44 78 -93 88
-107 16 -25 19 -26 30 -10 10 13 21 16 43 12 27 -6 33 -3 46 23 13 26 19 28
50 23 28 -4 36 -2 42 13 10 28 34 43 68 44 27 1 28 2 13 14 -20 15 -14 28 9
19 9 -4 16 2 20 16 3 14 21 28 45 38 24 9 37 21 34 28 -5 15 24 45 44 45 10 0
10 3 1 14 -17 20 3 30 28 14 25 -15 39 -4 21 17 -7 8 -10 22 -6 30 6 17 36 21
36 5 0 -5 5 -10 10 -10 6 0 10 6 10 14 0 9 7 12 18 9 14 -3 23 8 40 46 15 36
28 51 41 51 10 0 21 7 25 15 3 8 1 15 -4 15 -6 0 -10 5 -10 10 0 6 6 10 14 10
8 0 22 7 30 16 9 8 22 14 29 11 6 -2 20 2 29 11 10 8 29 15 42 15 14 0 24 4
23 11 -1 6 8 12 21 14 12 2 22 8 22 13 0 6 12 9 28 7 15 -2 26 -8 25 -14 -1
-7 6 -10 18 -7 11 3 18 12 17 22 -2 11 5 17 23 19 21 2 28 -2 33 -22 4 -18 11
-23 26 -19 12 3 20 1 18 -5 -3 -11 0 -12 34 -12 21 0 21 0 2 15 -18 14 -18 14
0 15 10 0 29 -11 42 -25 26 -28 57 -34 47 -10 -4 12 7 9 43 -10 34 -18 50 -22
55 -14 8 13 18 10 72 -27 37 -24 39 -25 32 -4 -6 19 -4 20 14 11 12 -6 30 -15
41 -21 11 -5 27 -10 35 -10 8 0 15 -4 15 -10 0 -5 11 -10 24 -10 32 0 50 -22
33 -40 -10 -12 -9 -12 5 -1 15 11 24 11 48 1 16 -7 30 -16 30 -21 0 -5 9 -9
19 -9 11 0 35 -13 53 -30 34 -32 48 -37 48 -19 0 6 6 9 13 6 6 -2 11 -12 9
-21 -3 -14 1 -16 17 -11 16 5 21 2 21 -10 0 -13 6 -16 25 -11 18 5 27 2 31 -9
4 -9 13 -13 24 -10 23 7 50 -4 50 -21 0 -8 9 -13 22 -11 17 1 24 -4 26 -19 3
-23 50 -54 81 -54 12 0 39 18 60 40 34 36 42 40 89 40 43 0 55 -5 81 -31 44
-44 66 -141 48 -211 -6 -25 -4 -27 33 -33 22 -4 38 -11 37 -17 -1 -6 19 -18
45 -27 48 -17 69 -29 46 -28 -32 1 -49 -4 -43 -13 3 -5 12 -7 20 -4 8 3 30 0
50 -6 26 -9 35 -16 30 -27 -4 -13 1 -15 29 -10 24 4 36 1 40 -8 2 -7 18 -16
34 -20 17 -3 33 -13 36 -21 3 -8 19 -14 36 -14 24 0 30 -4 28 -17 -2 -14 3
-17 24 -15 21 3 27 0 22 -11 -3 -10 4 -16 23 -20 15 -3 38 -8 51 -12 18 -6 21
-4 16 9 -4 12 0 16 15 16 12 0 24 -7 27 -15 4 -9 16 -14 28 -13 11 2 22 -1 24
-7 2 -5 12 -13 22 -17 11 -4 17 -13 14 -21 -4 -11 8 -16 48 -20 29 -3 61 -8
71 -12 16 -7 16 -4 -3 40 -24 56 -25 86 -5 125 42 82 177 79 260 -6 60 -63 91
-100 111 -133 14 -24 23 -29 41 -25 13 4 37 1 54 -6 26 -11 28 -14 15 -29 -13
-15 -9 -16 42 -17 34 0 57 -5 60 -12 4 -14 32 -16 32 -2 0 6 7 10 15 10 8 0
15 -4 15 -10 0 -5 11 -10 25 -10 14 0 25 5 25 10 0 6 -6 10 -14 10 -8 0 -18 5
-22 12 -5 7 0 9 14 6 28 -8 53 19 31 33 -20 13 -29 11 -29 -6 0 -10 -11 -15
-35 -15 -24 0 -35 5 -35 15 0 8 -6 15 -14 15 -7 0 -17 10 -20 23 -6 22 -6 22
-27 -5 -33 -45 -68 -31 -45 18 9 18 16 21 41 17 17 -3 27 -2 22 3 -5 5 -14 9
-20 9 -7 0 -11 11 -10 23 2 12 -2 22 -7 22 -6 0 -10 -7 -10 -15 0 -17 -26 -20
-35 -4 -4 6 2 13 14 16 12 3 21 13 22 22 0 10 2 11 6 4 2 -7 15 -13 28 -13 12
0 23 -6 22 -12 -1 -34 4 -48 19 -48 12 0 15 7 12 25 -4 21 -2 23 13 15 24 -13
29 -13 29 5 0 10 10 15 28 15 25 -1 26 -2 9 -15 -13 -9 -17 -20 -12 -34 4 -14
0 -27 -11 -38 -11 -12 -13 -18 -5 -21 7 -2 18 2 24 11 13 15 97 12 97 -4 0 -5
7 -9 16 -9 13 0 11 6 -10 26 -14 15 -26 31 -26 36 0 4 -11 6 -25 2 -22 -5 -25
-3 -25 20 0 20 -7 29 -27 36 -46 16 -58 26 -58 49 0 12 -18 37 -42 59 -55 49
-189 162 -223 187 -15 11 -70 52 -121 91 -86 64 -305 214 -315 214 -2 0 -34
20 -71 43 -37 24 -108 66 -158 92 -49 26 -97 53 -105 60 -8 6 -58 31 -110 54
-52 23 -131 60 -175 81 -76 36 -126 57 -310 131 -171 68 -235 92 -360 135
-251 87 -371 126 -460 149 -49 13 -166 44 -260 69 -230 62 -394 98 -625 141
-107 19 -225 42 -261 50 -92 21 -517 80 -754 105 -110 11 -216 23 -235 26 -19
4 -53 8 -75 9 -22 2 -110 10 -195 18 -224 23 -661 46 -982 54 -154 3 -281 10
-284 15 -8 12 -941 10 -949 -2z m1430 -219 c43 -20 205 -142 244 -185 14 -14
21 -29 17 -33 -10 -10 -140 -21 -252 -22 -80 -1 -97 2 -145 27 -56 28 -98 83
-99 129 0 25 44 81 74 93 37 15 119 10 161 -9z m-1659 -56 c44 -18 164 -101
229 -159 l50 -44 -30 -12 c-36 -14 -286 -26 -339 -16 -24 5 -54 23 -82 48 -40
37 -44 45 -44 88 0 42 4 52 35 79 31 27 43 31 91 31 30 0 70 -7 90 -15z m755
-89 c102 -27 231 -78 237 -95 8 -25 -274 -131 -349 -131 -56 0 -119 27 -143
62 -47 66 3 155 99 179 48 11 57 10 156 -15z m1721 -63 c23 -22 28 -35 28 -73
0 -96 -56 -151 -228 -224 -130 -55 -172 -65 -172 -43 0 21 63 157 110 238 75
127 189 172 262 102z m-4236 -27 c90 -60 216 -168 206 -178 -13 -13 -248 -30
-307 -23 -81 10 -136 43 -163 98 -21 41 -22 51 -12 82 17 51 50 66 141 63 69
-3 81 -6 135 -42z m-1127 -12 c30 -21 60 -89 61 -135 0 -53 -32 -139 -117
-316 -9 -18 -21 -33 -28 -33 -6 0 -21 28 -33 63 -80 232 -82 356 -7 415 33 26
91 29 124 6z m6349 -110 c24 -3 42 -9 40 -13 -6 -14 -139 -132 -198 -175 -34
-25 -85 -53 -113 -61 -46 -14 -56 -14 -99 1 -65 21 -91 56 -85 112 8 71 57
113 162 140 41 11 215 8 293 -4z m-6020 -33 c48 -14 103 -62 199 -173 104
-120 103 -127 -24 -110 -232 29 -282 46 -326 114 -28 44 -35 94 -17 128 23 43
97 61 168 41z m2121 -53 c-7 -13 -32 -50 -57 -83 -130 -172 -172 -204 -269
-205 -40 0 -58 5 -79 24 -24 20 -28 31 -27 74 1 83 45 130 159 170 71 26 278
63 282 51 2 -4 -2 -18 -9 -31z m1792 -31 c27 -18 36 -32 43 -70 17 -87 -11
-139 -157 -285 -80 -82 -101 -96 -124 -88 -36 14 9 329 56 395 26 36 84 70
122 71 14 0 41 -10 60 -23z m1504 -118 c45 -39 58 -65 80 -153 20 -77 36 -276
24 -290 -16 -18 -241 200 -276 267 -9 18 -17 55 -17 83 -1 41 4 58 27 87 26
34 32 37 77 37 41 0 55 -5 85 -31z m2303 -3 c58 -30 120 -115 200 -272 36 -71
40 -84 27 -94 -12 -10 -28 -9 -83 9 -37 11 -71 21 -76 21 -19 0 -173 84 -200
109 -38 35 -56 80 -56 140 0 43 4 53 31 75 24 20 41 26 80 26 28 0 62 -6 77
-14z m-1392 -35 c38 -23 74 -94 74 -147 0 -46 -18 -99 -85 -246 -46 -100 -68
-130 -85 -111 -4 4 -20 51 -35 103 -15 52 -31 106 -36 118 -5 13 -12 57 -16
97 -5 63 -3 79 16 118 24 50 71 87 111 87 14 0 39 -9 56 -19z m-462 -112 c43
-29 77 -90 105 -186 12 -40 30 -105 41 -143 12 -39 18 -75 15 -81 -13 -20
-211 106 -291 186 -40 40 -54 62 -63 102 -15 59 -10 81 26 124 25 29 30 31 79
27 34 -3 65 -13 88 -29z m-7693 -2 c27 -18 35 -30 37 -61 2 -22 1 -50 -2 -62
-10 -37 -64 -93 -116 -119 -75 -38 -279 -105 -285 -94 -7 11 74 169 130 253
63 95 165 131 236 83z m5979 -17 c19 -10 52 -38 73 -62 21 -23 43 -50 51 -58
29 -34 128 -191 123 -196 -8 -8 -184 26 -267 52 -136 43 -180 87 -180 180 0
40 5 55 24 73 46 43 105 47 176 11z m-4352 -1 c39 -13 62 -48 62 -93 0 -83
-48 -138 -172 -198 -126 -61 -207 -93 -214 -85 -10 10 76 214 116 276 59 92
132 127 208 100z m1673 -51 c37 -12 126 -72 227 -152 50 -40 60 -52 50 -62 -8
-8 -71 -18 -154 -25 -123 -10 -148 -9 -196 5 -88 25 -138 78 -138 143 0 80
108 126 211 91z m-4454 -176 c14 -9 -125 -136 -218 -202 -89 -62 -217 -50
-250 24 -27 59 26 142 107 171 43 16 339 21 361 7z m3363 -21 l64 -6 -80 -73
c-183 -166 -254 -197 -351 -157 -47 20 -62 41 -63 88 -1 126 144 176 430 148z
m2142 -97 c62 -23 88 -56 88 -108 0 -35 -6 -48 -32 -73 -48 -45 -70 -53 -142
-53 -89 0 -346 73 -346 98 0 10 244 128 290 141 53 14 95 13 142 -5z m6489
-30 c66 -33 108 -121 144 -303 23 -114 23 -141 1 -141 -15 0 -177 117 -242
174 -64 56 -84 97 -84 173 0 52 4 63 28 85 41 39 92 43 153 12z m-11286 -168
c27 -22 30 -29 30 -82 -1 -101 -28 -136 -237 -299 -87 -69 -88 -68 -59 90 27
145 46 214 68 244 53 71 141 92 198 47z m3205 -31 c20 -10 33 -29 45 -64 15
-46 15 -53 -1 -101 -22 -66 -68 -125 -178 -224 -60 -55 -90 -76 -97 -69 -20
20 7 283 36 359 17 44 43 73 90 97 38 20 68 21 105 2z m2360 -55 c29 -16 60
-74 60 -113 0 -55 -28 -116 -84 -182 -64 -76 -203 -198 -216 -190 -29 18 5
315 46 402 35 72 134 115 194 83z m-6002 -30 c65 -47 83 -110 97 -332 5 -72 3
-108 -3 -108 -6 0 -60 47 -121 105 -125 121 -151 163 -151 249 0 50 4 61 29
87 41 40 93 40 149 -1z m975 -27 c11 -10 -114 -241 -155 -288 -46 -52 -92 -75
-151 -75 -39 0 -49 5 -76 35 -34 39 -38 69 -17 118 29 68 129 131 306 193 72
25 84 27 93 17z m2886 -67 c37 -20 87 -78 107 -124 9 -20 29 -86 44 -147 16
-60 32 -118 35 -127 20 -52 -83 -5 -230 105 -102 76 -145 156 -124 232 19 67
99 96 168 61z m8631 -16 c0 -5 -4 -10 -10 -10 -5 0 -10 5 -10 10 0 6 5 10 10
10 6 0 10 -4 10 -10z m-5510 -50 c0 -5 -7 -10 -15 -10 -8 0 -15 5 -15 10 0 6
7 10 15 10 8 0 15 -4 15 -10z m-5160 -56 c64 -29 110 -85 110 -132 0 -98 -104
-140 -216 -88 -57 27 -268 222 -258 238 4 6 66 9 163 6 130 -3 163 -7 201 -24z
m-3754 -18 c54 -54 43 -119 -30 -184 -49 -42 -106 -56 -329 -77 -88 -9 -87 -4
18 116 124 142 175 177 259 178 42 1 52 -3 82 -33z m849 -10 c43 -18 59 -48
52 -103 -9 -86 -83 -134 -238 -157 -110 -16 -219 -21 -219 -9 0 7 49 73 65 88
7 6 29 31 49 57 41 51 124 116 165 129 41 12 89 10 126 -5z m12982 -42 c-3 -3
-12 -4 -19 -1 -8 3 -5 6 6 6 11 1 17 -2 13 -5z m637 -73 c3 -4 -6 -6 -19 -3
-14 2 -25 6 -25 8 0 8 39 4 44 -5z m-12080 -55 c16 -21 21 -41 19 -86 -2 -67
-10 -86 -67 -154 -47 -56 -192 -186 -207 -186 -13 0 -7 152 9 259 19 123 58
182 137 208 38 13 81 -3 109 -41z m5210 -172 c-6 -25 -6 -26 27 -19 30 7 32 6
20 -9 -17 -21 -60 -21 -76 1 -10 13 -9 20 4 34 23 25 32 23 25 -7z m46 16 c0
-5 -4 -10 -10 -10 -5 0 -10 5 -10 10 0 6 5 10 10 10 6 0 10 -4 10 -10z m-4620
-30 c68 -35 106 -108 151 -288 15 -63 26 -119 23 -124 -7 -10 -50 12 -144 75
-116 78 -157 115 -179 161 -65 134 24 240 149 176z m-1255 -4 c47 -20 85 -81
92 -148 3 -34 -3 -107 -17 -196 -18 -115 -26 -142 -39 -142 -16 0 -107 133
-154 225 -51 101 -44 202 16 249 37 30 54 32 102 12z m5591 -83 c-5 -23 -4
-25 4 -10 6 9 15 15 21 12 15 -10 10 -21 -16 -33 -31 -14 -60 -6 -45 13 6 7
10 17 9 21 -3 18 1 24 17 24 12 0 15 -6 10 -27z m-201 -42 c-3 -6 -11 -8 -17
-5 -6 4 -5 9 3 15 16 10 23 4 14 -10z m-2196 -17 c56 -28 102 -82 151 -176 14
-26 38 -72 54 -103 41 -77 30 -85 -71 -56 -43 13 -91 29 -108 36 -16 7 -51 22
-77 34 -139 59 -192 230 -86 276 48 21 78 18 137 -11z m2165 -36 c-6 -9 -34
-11 -34 -3 0 3 6 12 13 19 12 14 31 0 21 -16z m-7117 -50 c25 -23 43 -75 43
-124 0 -64 -84 -267 -137 -333 -20 -24 -20 -24 -31 -5 -6 11 -24 72 -41 135
-40 147 -41 225 -5 286 42 73 118 91 171 41z m6578 -58 c-3 -5 -11 -10 -16
-10 -6 0 -7 5 -4 10 3 6 11 10 16 10 6 0 7 -4 4 -10z m-6970 -36 c64 -69 -2
-190 -126 -233 -63 -21 -279 -65 -286 -57 -7 7 102 172 149 226 61 69 101 90
176 90 55 0 66 -3 87 -26z m7023 -22 c2 -12 0 -22 -5 -22 -12 0 -33 37 -26 44
12 12 28 0 31 -22z m-113 -32 c3 -5 -3 -10 -14 -10 -12 0 -21 5 -21 10 0 6 6
10 14 10 8 0 18 -4 21 -10z m55 -4 c0 -3 -4 -8 -10 -11 -5 -3 -10 -1 -10 4 0
6 5 11 10 11 6 0 10 -2 10 -4z m-2726 -113 c42 -20 76 -89 76 -157 0 -89 -67
-341 -91 -341 -15 0 -73 100 -121 209 -86 196 -9 359 136 289z m2402 -32 c-4
-6 -11 -11 -15 -11 -11 0 -21 37 -13 45 9 9 35 -22 28 -34z m-2039 -60 c88
-21 194 -56 234 -76 15 -8 41 -33 59 -55 63 -80 45 -176 -39 -201 -79 -23
-142 6 -222 104 -56 68 -150 227 -143 239 7 12 25 10 111 -11z m-3434 -92 c49
-22 61 -102 28 -175 -19 -43 -28 -50 -121 -111 -58 -38 -210 -113 -229 -113
-17 0 -14 12 24 118 58 161 103 233 169 273 35 21 93 25 129 8z m4517 -89 c0
-5 -5 -10 -11 -10 -5 0 -7 5 -4 10 3 6 8 10 11 10 2 0 4 -4 4 -10z m-6557 -50
c24 -27 28 -39 24 -70 -14 -110 -118 -162 -349 -176 -102 -7 -108 -6 -108 12
0 33 187 219 250 249 77 36 142 31 183 -15z m4857 -196 c-30 -153 -45 -189
-94 -240 -50 -52 -115 -68 -169 -43 -33 15 -47 49 -47 110 0 66 21 113 72 161
44 40 62 54 178 132 93 62 96 56 60 -120z m580 -24 c0 -17 -150 -234 -184
-266 -57 -52 -103 -74 -158 -74 -44 0 -54 4 -84 34 -29 29 -34 41 -34 79 0 36
7 54 33 87 45 59 85 79 243 120 111 30 184 38 184 20z m295 -290 c3 -5 1 -10
-4 -10 -6 0 -11 5 -11 10 0 6 2 10 4 10 3 0 8 -4 11 -10z m-173 -182 c-15 -15
-34 -27 -42 -27 -13 0 -13 1 1 12 16 12 33 46 31 60 -1 4 7 2 18 -5 19 -12 18
-13 -8 -40z m-2625 -90 c-3 -8 -6 -5 -6 6 -1 11 2 17 5 13 3 -3 4 -12 1 -19z
m353 1 c0 -5 -4 -9 -10 -9 -5 0 -10 7 -10 16 0 8 5 12 10 9 6 -3 10 -10 10
-16z m1853 -76 c-5 -12 -8 -12 -22 2 -14 14 -14 17 -1 25 17 11 31 -6 23 -27z
m-964 1 c2 -2 0 -11 -3 -21 -7 -17 -8 -17 -21 1 -8 10 -19 15 -24 11 -6 -3
-21 -3 -32 0 -17 6 -19 9 -8 16 12 7 77 2 88 -7z m-2776 -268 c4 -10 -4 -15
-24 -18 -38 -6 -46 3 -17 19 30 16 35 16 41 -1z m-78 -46 c3 -6 -1 -7 -9 -4
-18 7 -21 14 -7 14 6 0 13 -4 16 -10z m-905 -215 c14 -17 4 -19 -50 -9 -22 5
-28 9 -18 15 21 14 54 10 68 -6z m-193 -81 c-3 -3 -12 -4 -19 -1 -8 3 -5 6 6
6 11 1 17 -2 13 -5z m-47 -14 c0 -5 -5 -10 -11 -10 -5 0 -7 5 -4 10 3 6 8 10
11 10 2 0 4 -4 4 -10z m-72 -57 c-10 -2 -26 -2 -35 0 -10 3 -2 5 17 5 19 0 27
-2 18 -5z m-151 -59 c-3 -3 -12 -4 -19 -1 -8 3 -5 6 6 6 11 1 17 -2 13 -5z
m38 -4 c3 -5 2 -10 -4 -10 -5 0 -13 5 -16 10 -3 6 -2 10 4 10 5 0 13 -4 16
-10z m-120 -100 c-13 -14 -22 -17 -29 -10 -5 5 -19 10 -30 10 -17 0 -18 2 -6
10 8 5 30 10 49 10 34 0 34 0 16 -20z m-378 -156 c-3 -3 -12 -4 -19 -1 -8 3
-5 6 6 6 11 1 17 -2 13 -5z"/>
<path d="M14775 20810 c4 -6 11 -8 16 -5 14 9 11 15 -7 15 -8 0 -12 -5 -9 -10z"/>
<path d="M13093 20695 c-8 -9 -9 -15 0 -24 17 -17 27 -13 27 8 0 25 -12 32
-27 16z"/>
<path d="M17990 20690 c0 -5 5 -10 10 -10 6 0 10 5 10 10 0 6 -4 10 -10 10 -5
0 -10 -4 -10 -10z"/>
<path d="M18830 20619 c0 -5 5 -7 10 -4 6 3 10 8 10 11 0 2 -4 4 -10 4 -5 0
-10 -5 -10 -11z"/>
<path d="M18660 20580 c-13 -8 -12 -10 3 -10 9 0 17 5 17 10 0 12 -1 12 -20 0z"/>
<path d="M19005 20573 c11 -3 25 -8 30 -13 6 -4 19 -10 29 -14 19 -7 19 -6 1
14 -11 12 -29 20 -49 19 -21 -1 -25 -3 -11 -6z"/>
<path d="M12430 20446 c0 -10 28 -13 41 -5 10 6 7 9 -13 9 -16 0 -28 -2 -28
-4z"/>
<path d="M11409 20078 c-1 -7 -1 -19 0 -25 1 -7 -6 -13 -16 -13 -13 0 -14 -3
-5 -12 14 -14 42 6 42 33 0 21 -19 37 -21 17z"/>
<path d="M11220 19979 c0 -5 5 -7 10 -4 6 3 10 8 10 11 0 2 -4 4 -10 4 -5 0
-10 -5 -10 -11z"/>
<path d="M10871 19821 c-12 -21 -6 -27 16 -13 7 5 9 13 4 21 -7 11 -11 9 -20
-8z"/>
<path d="M9272 19350 c-18 -21 -29 -41 -24 -44 10 -6 72 57 72 74 0 18 -14 9
-48 -30z"/>
<path d="M8976 19094 c-5 -14 -4 -15 9 -4 17 14 19 20 6 20 -5 0 -12 -7 -15
-16z"/>
<path d="M5710 18640 c0 -5 4 -10 9 -10 6 0 13 5 16 10 3 6 -1 10 -9 10 -9 0
-16 -4 -16 -10z"/>
<path d="M7670 18546 c0 -9 5 -16 10 -16 6 0 10 4 10 9 0 6 -4 13 -10 16 -5 3
-10 -1 -10 -9z"/>
<path d="M7710 18528 c0 -7 5 -20 10 -28 8 -12 10 -9 10 13 0 15 -4 27 -10 27
-5 0 -10 -6 -10 -12z"/>
<path d="M8060 18496 c0 -9 5 -16 10 -16 6 0 10 4 10 9 0 6 -4 13 -10 16 -5 3
-10 -1 -10 -9z"/>
<path d="M7960 18479 c0 -5 5 -7 10 -4 6 3 10 8 10 11 0 2 -4 4 -10 4 -5 0
-10 -5 -10 -11z"/>
<path d="M3382 18058 c3 -7 13 -15 22 -16 12 -3 17 1 14 10 -3 7 -13 15 -22
16 -12 3 -17 -1 -14 -10z"/>
<path d="M2870 17730 c0 -5 5 -10 10 -10 6 0 10 5 10 10 0 6 -4 10 -10 10 -5
0 -10 -4 -10 -10z"/>
<path d="M18545 17230 c-141 -22 -450 -63 -605 -80 -96 -11 -197 -24 -225 -30
-64 -13 -435 -51 -925 -96 -212 -20 -401 -37 -420 -39 -119 -13 -983 -77
-1336 -99 -230 -15 -441 -31 -469 -36 -27 -6 -331 -26 -675 -45 -344 -20 -821
-47 -1060 -61 -522 -31 -429 -26 -1365 -74 -418 -21 -800 -41 -850 -44 -49 -3
-135 -7 -190 -10 -55 -2 -145 -7 -200 -11 -55 -3 -147 -8 -205 -10 -58 -2
-127 -6 -155 -9 -66 -8 -510 -27 -1730 -76 -550 -21 -1061 -42 -1135 -45 -190
-9 -344 -13 -835 -26 -457 -12 -1687 -5 -1925 11 -514 34 -824 63 -1071 100
l-187 28 -148 -54 c-341 -126 -543 -211 -824 -346 -396 -192 -685 -401 -800
-579 -22 -34 -40 -66 -40 -71 0 -4 -11 -31 -24 -58 l-24 -50 18 -158 c28 -232
46 -346 59 -370 6 -11 11 -30 11 -41 0 -12 4 -21 10 -21 5 0 17 -23 27 -50 14
-41 31 -60 88 -107 39 -31 86 -76 105 -99 38 -48 85 -74 180 -99 155 -40 180
-47 253 -70 80 -25 100 -21 185 43 235 178 619 342 1157 496 476 136 855 187
1087 145 194 -34 353 -142 425 -289 41 -84 54 -145 55 -253 l0 -88 31 7 c48
10 60 21 97 87 54 93 159 225 240 300 88 81 219 150 330 173 104 22 272 15
359 -15 118 -41 241 -137 333 -260 l41 -54 71 7 c113 11 224 30 261 46 11 5
43 16 70 25 28 10 60 21 73 26 151 60 251 97 302 110 25 6 110 15 190 20 80 5
163 13 185 18 22 5 87 19 145 31 543 112 1120 302 1580 517 181 85 206 95 230
95 28 -1 218 -39 230 -47 4 -2 68 -16 141 -30 74 -15 152 -32 174 -40 22 -7
66 -16 98 -20 31 -4 57 -10 57 -14 0 -3 39 -7 88 -9 48 -2 101 -7 117 -12 17
-5 71 -8 120 -6 50 2 97 0 106 -5 16 -8 395 -21 734 -25 110 -2 405 -8 655
-14 731 -17 1500 -30 1855 -30 1937 0 2238 6 3020 60 301 21 923 83 1010 100
48 10 146 25 320 50 99 14 479 83 600 110 50 10 142 35 205 54 63 19 160 46
215 61 55 15 134 40 175 55 41 15 93 33 115 40 22 7 62 22 88 33 l48 20 -6
136 c-3 75 -10 152 -15 171 -5 19 -16 179 -25 355 -22 432 -27 470 -56 494
-49 40 -239 90 -424 111 -55 6 -116 16 -135 21 -35 9 -206 30 -225 28 -5 -1
-32 -5 -60 -9z m-2148 -550 c15 -22 2 -34 -26 -25 -11 3 -22 1 -26 -5 -3 -5
-1 -10 4 -10 20 0 11 -18 -11 -25 -42 -14 -108 -17 -108 -6 0 6 10 11 23 11
20 0 19 2 -7 15 -27 14 -31 14 -45 0 -14 -13 -14 -15 2 -15 14 0 16 -6 11 -25
-4 -18 -2 -25 9 -25 9 0 13 -7 10 -23 -4 -22 -7 -22 -49 -13 -24 6 -44 14 -44
17 0 4 -9 5 -20 2 -23 -6 -44 -38 -35 -52 3 -5 -4 -7 -14 -4 -13 3 -24 -2 -33
-16 -7 -12 -18 -21 -24 -21 -6 0 -29 -12 -50 -26 -22 -16 -54 -27 -74 -28 -28
-1 -36 -5 -38 -24 -3 -18 -8 -21 -29 -16 -17 5 -30 2 -37 -7 -6 -8 -26 -25
-44 -38 -25 -17 -31 -28 -26 -43 4 -13 0 -24 -13 -33 -15 -12 -16 -17 -5 -34
17 -28 16 -31 -12 -31 -31 0 -36 -8 -46 -73 -14 -87 -41 -181 -56 -198 -7 -8
-17 -29 -20 -47 -4 -17 -24 -50 -45 -73 -22 -23 -39 -52 -39 -65 0 -12 -6 -24
-14 -27 -8 -3 -16 -16 -18 -28 -2 -14 -17 -30 -40 -42 -21 -10 -38 -25 -38
-33 0 -8 -10 -14 -25 -14 -13 0 -28 -7 -33 -17 -6 -9 -26 -18 -47 -20 -20 -2
-56 -10 -78 -18 -23 -8 -50 -15 -59 -15 -9 0 -22 -8 -27 -17 -6 -10 -11 -13
-11 -5 0 9 -11 10 -37 6 -21 -4 -54 -7 -73 -8 -19 -1 -41 -5 -47 -9 -7 -5 -18
-5 -23 -2 -6 4 -17 2 -25 -5 -10 -8 -19 -8 -33 -1 -11 6 -22 8 -25 4 -4 -3
-26 -5 -51 -5 -25 1 -48 -3 -51 -8 -4 -6 -13 -10 -21 -10 -8 0 -12 5 -9 10 4
7 -5 9 -27 5 -18 -3 -34 -10 -36 -16 -6 -15 -23 -10 -43 14 -18 21 -20 21 -33
5 -18 -24 -32 -23 -39 2 -6 23 -27 27 -27 5 0 -19 -4 -18 -59 1 -44 15 -94 12
-118 -8 -17 -14 -46 -1 -40 17 5 11 1 12 -16 6 -15 -6 -27 -3 -41 11 -26 23
-32 23 -40 -4 -6 -21 -7 -21 -17 -5 -7 12 -23 17 -54 17 -27 0 -45 5 -45 11 0
7 -12 0 -27 -15 -17 -18 -30 -23 -36 -17 -7 7 -7 15 0 23 6 9 2 20 -15 38
l-24 25 7 -28 c4 -15 5 -27 2 -27 -14 0 -57 24 -57 32 0 16 -28 8 -41 -12 -11
-17 -20 -19 -47 -14 l-33 7 32 19 33 20 -24 18 c-21 16 -26 16 -35 3 -7 -10
-41 -16 -110 -22 -97 -7 -101 -6 -118 16 -10 13 -25 23 -33 23 -8 0 -14 4 -14
9 0 4 25 8 55 8 46 0 55 -3 55 -17 0 -21 37 -30 83 -21 l32 7 -27 7 c-16 4
-28 14 -28 23 0 12 -6 15 -22 11 -13 -3 -32 1 -42 8 -21 16 -21 17 9 33 19 10
17 12 -18 27 -21 8 -35 20 -32 25 4 6 0 13 -8 16 -9 3 -13 13 -10 25 7 25 -14
25 -35 -1 -17 -20 -17 -20 -55 6 -30 20 -37 31 -33 47 5 20 1 22 -49 23 -60 0
-60 0 -70 32 -6 21 -4 23 22 21 47 -4 63 0 63 16 0 8 -6 15 -12 15 -7 0 -29
14 -48 30 -31 26 -34 31 -22 49 15 26 15 34 1 25 -7 -4 -27 -8 -45 -10 -31 -2
-33 0 -31 27 2 23 7 29 24 29 30 0 36 13 12 33 -17 15 -24 36 -20 60 0 4 -8 7
-19 7 -16 0 -19 -5 -13 -30 5 -28 4 -30 -25 -30 l-31 0 13 32 c12 28 12 34 -3
45 -40 31 37 31 86 0 6 -4 14 -3 18 3 3 5 0 10 -8 10 -13 0 -46 31 -61 58 -10
17 10 15 28 -4 9 -8 16 -14 17 -12 3 13 7 37 10 58 4 24 2 25 -38 22 -43 -3
-60 12 -28 24 13 5 12 10 -6 25 l-22 19 21 0 c27 0 36 15 17 30 -18 15 0 36
36 42 13 1 24 10 24 18 0 8 7 21 15 28 11 10 12 15 3 18 -18 8 -16 44 2 44 9
0 30 7 48 16 36 19 133 27 552 44 149 7 311 14 360 16 118 5 516 4 885 -2 288
-6 604 4 990 31 260 17 244 18 257 -5z m103 0 c12 -8 11 -10 -7 -10 -13 0 -23
5 -23 10 0 13 11 13 30 0z m-3220 -136 c0 -14 -3 -14 -15 -4 -8 7 -15 14 -15
16 0 2 7 4 15 4 8 0 15 -7 15 -16z m2865 -34 c3 -5 1 -10 -4 -10 -6 0 -11 5
-11 10 0 6 2 10 4 10 3 0 8 -4 11 -10z m-2910 -20 c-3 -5 -13 -10 -21 -10 -8
0 -14 5 -14 10 0 6 9 10 21 10 11 0 17 -4 14 -10z m-60 -90 c3 -5 1 -10 -4
-10 -6 0 -11 5 -11 10 0 6 2 10 4 10 3 0 8 -4 11 -10z m-8275 -184 c6 -8 21
-16 33 -18 15 -2 23 -13 28 -34 3 -17 13 -42 22 -54 12 -17 13 -27 6 -36 -7
-8 -7 -14 1 -19 20 -12 10 -25 -21 -25 -18 0 -28 -4 -24 -10 9 -15 -14 -40
-36 -40 -11 0 -19 -5 -19 -11 0 -7 -20 -10 -52 -9 -83 4 -91 2 -84 -16 5 -14
1 -16 -25 -10 -24 4 -35 1 -48 -15 -14 -18 -20 -19 -41 -9 -20 9 -32 8 -55 -4
-20 -11 -24 -16 -12 -16 19 0 23 -15 6 -25 -5 -4 -18 0 -28 9 -22 20 -41 21
-41 1 0 -11 -7 -13 -29 -9 -16 4 -32 1 -35 -5 -5 -8 -13 -8 -26 -1 -13 7 -20
6 -23 -3 -4 -9 -8 -8 -16 3 -8 11 -11 12 -11 2 0 -18 -147 -13 -162 6 -16 18
0 30 46 34 22 2 41 9 44 16 2 6 -2 10 -10 8 -50 -16 -64 -15 -65 4 -1 13 3 17
13 13 9 -3 14 2 14 16 0 22 14 28 25 11 4 -6 11 -7 17 -4 7 4 1 14 -13 25 -14
11 -18 19 -10 19 10 0 12 8 8 30 -6 28 -5 29 23 23 23 -4 30 -2 30 11 0 9 5
16 10 16 6 0 10 -6 10 -14 0 -17 63 -31 68 -16 2 6 15 15 28 20 13 5 24 16 24
25 0 8 9 15 20 15 11 0 20 -7 20 -15 0 -8 5 -15 10 -15 6 0 10 5 10 11 0 17
23 35 54 43 17 4 41 15 55 25 14 10 32 16 39 14 7 -3 19 0 26 6 7 6 32 10 55
8 25 -2 45 1 49 8 15 26 73 33 92 11z m127 -51 c3 -9 3 -18 1 -21 -9 -9 -38 8
-38 22 0 19 29 18 37 -1z m-1223 -66 c-7 -11 -34 -12 -34 -1 0 14 11 21 26 15
8 -3 11 -9 8 -14z m-174 -16 c11 -14 20 -29 20 -33 0 -13 -61 -20 -81 -10 -10
6 -19 7 -19 2 0 -18 47 -29 99 -24 61 5 63 -5 6 -33 -29 -13 -39 -14 -51 -4
-17 14 -73 18 -71 5 1 -5 -29 -14 -66 -21 -54 -9 -70 -9 -79 2 -6 7 -16 13
-23 13 -7 0 -18 7 -25 15 -7 8 -21 15 -31 15 -11 0 -19 7 -19 15 0 8 5 15 11
15 6 0 23 9 38 19 37 27 123 47 204 48 61 1 69 -1 87 -24z m100 17 c0 -5 -4
-10 -10 -10 -5 0 -10 5 -10 10 0 6 5 10 10 10 6 0 10 -4 10 -10z m-17 -57 c-7
-2 -21 -2 -30 0 -10 3 -4 5 12 5 17 0 24 -2 18 -5z m495 -42 c3 -9 -2 -11 -17
-6 -12 4 -21 2 -21 -4 0 -6 -5 -11 -10 -11 -6 0 -5 8 2 20 14 22 39 23 46 1z
m9064 -2 c21 -11 21 -12 3 -25 -10 -8 -13 -14 -7 -14 20 0 13 -17 -9 -23 -12
-3 -28 0 -36 9 -13 12 -12 14 2 14 9 0 16 7 14 18 -3 36 0 38 33 21z m-6532
-154 c12 7 50 -25 50 -42 0 -12 7 -15 28 -12 4 1 6 5 5 10 -2 5 6 9 17 9 18 0
19 -3 10 -21 -6 -11 -18 -23 -26 -26 -21 -8 -17 -22 5 -16 10 3 22 0 25 -6 12
-20 28 -12 21 10 -5 14 -2 25 6 30 21 13 26 11 32 -11 3 -14 14 -20 31 -20 14
0 26 5 26 10 0 6 -7 10 -15 10 -8 0 -15 5 -15 11 0 7 10 9 27 4 36 -9 41 -14
23 -26 -12 -7 -12 -11 -3 -17 17 -11 -12 -52 -36 -52 -10 0 -24 -7 -31 -15 -9
-10 -9 -15 -1 -15 6 0 11 -4 11 -10 0 -17 -15 -11 -47 20 -29 29 -43 30 -43 3
0 -7 11 -13 25 -13 27 0 31 -10 15 -41 -7 -11 -21 -19 -37 -19 -14 0 -31 -8
-38 -17 -11 -15 -15 -16 -30 -3 -18 15 -21 15 -40 0 -5 -4 -30 -5 -55 -1 -34
5 -45 11 -44 24 1 11 -8 20 -25 24 -32 8 -71 32 -71 45 0 5 5 6 10 3 6 -3 13
1 16 9 9 23 24 20 24 -4 0 -11 7 -20 15 -20 12 0 15 10 13 40 -2 21 2 39 7 39
6 0 9 -7 7 -16 -2 -9 2 -13 10 -10 7 2 12 12 12 21 -1 9 5 16 13 16 14 0 63
44 63 56 0 2 -8 4 -19 4 -14 0 -18 7 -17 30 2 41 30 60 34 25 2 -14 7 -23 12
-20z m155 15 c4 -6 2 -17 -5 -25 -9 -10 -7 -14 7 -18 16 -4 15 -5 -2 -6 -11 0
-31 6 -43 15 -28 19 -30 39 -2 24 16 -9 20 -8 20 5 0 17 16 20 25 5z m115 -34
c0 -2 -7 -9 -15 -16 -13 -11 -14 -10 -9 4 5 14 24 23 24 12z m6379 -56 c6 0
11 -8 11 -18 0 -11 10 -23 23 -29 19 -9 17 -10 -20 -10 -31 0 -40 3 -36 13 3
8 -2 17 -11 20 -14 5 -15 14 -6 54 0 3 7 -3 14 -12 7 -10 18 -18 25 -18z
m-6292 -36 c-9 -9 -28 6 -21 18 4 6 10 6 17 -1 6 -6 8 -13 4 -17z m-43 -6
c-18 -29 -49 -58 -61 -58 -19 0 -16 14 7 35 11 10 17 22 14 26 -3 5 7 9 21 9
18 0 24 -4 19 -12z m6506 -18 c0 -5 -12 -10 -27 -9 -25 0 -26 1 -8 9 27 12 35
12 35 0z m-15 -40 c3 -5 16 -10 27 -10 12 0 19 -3 15 -6 -9 -9 -77 5 -77 16 0
13 27 13 35 0z m-6555 -35 c-7 -8 -16 -12 -21 -9 -13 8 -1 24 18 24 13 0 13
-3 3 -15z m-380 -45 c-12 -22 -25 -26 -36 -9 -7 12 12 29 34 29 10 0 10 -5 2
-20z m65 -40 c-3 -5 -13 -10 -21 -10 -8 0 -12 5 -9 10 3 6 13 10 21 10 8 0 12
-4 9 -10z"/>
<path d="M16285 16660 c-3 -5 1 -13 10 -16 22 -9 29 1 11 15 -10 8 -16 9 -21
1z"/>
<path d="M16165 16600 c4 -6 11 -8 16 -5 14 9 11 15 -7 15 -8 0 -12 -5 -9 -10z"/>
<path d="M16085 16590 c-3 -5 1 -10 10 -10 9 0 13 5 10 10 -3 6 -8 10 -10 10
-2 0 -7 -4 -10 -10z"/>
<path d="M13278 16443 c7 -3 16 -2 19 1 4 3 -2 6 -13 5 -11 0 -14 -3 -6 -6z"/>
<path d="M13355 15990 c-3 -5 1 -10 9 -10 9 0 16 5 16 10 0 6 -4 10 -9 10 -6
0 -13 -4 -16 -10z"/>
<path d="M13420 15886 c0 -2 11 -6 25 -8 14 -3 25 -1 25 3 0 5 -11 9 -25 9
-14 0 -25 -2 -25 -4z"/>
<path d="M13620 15761 c0 -9 30 -24 36 -18 2 1 -6 8 -16 15 -11 7 -20 8 -20 3z"/>
<path d="M13765 15631 c-3 -5 -1 -12 5 -16 5 -3 10 1 10 9 0 18 -6 21 -15 7z"/>
<path d="M3490 16081 c0 -6 5 -13 10 -16 6 -3 10 1 10 9 0 9 -4 16 -10 16 -5
0 -10 -4 -10 -9z"/>
<path d="M3560 16079 c0 -5 5 -7 10 -4 6 3 10 8 10 11 0 2 -4 4 -10 4 -5 0
-10 -5 -10 -11z"/>
<path d="M3605 16064 c9 -9 19 -13 23 -10 3 4 0 11 -8 16 -24 15 -33 11 -15
-6z"/>
<path d="M3380 15990 c0 -5 5 -10 10 -10 6 0 10 5 10 10 0 6 -4 10 -10 10 -5
0 -10 -4 -10 -10z"/>
<path d="M6712 15724 c-1 -14 2 -23 8 -19 12 7 14 45 2 45 -4 0 -9 -11 -10
-26z"/>
<path d="M6803 15645 c-18 -19 -17 -21 11 -20 31 0 45 13 26 25 -19 12 -23 12
-37 -5z"/>
<path d="M6690 15641 c0 -14 28 -33 44 -29 11 2 7 8 -14 20 -17 9 -30 13 -30
9z"/>
<path d="M19195 15170 l-70 -6 83 -2 c49 -1 82 2 82 8 0 6 -6 9 -12 8 -7 -1
-44 -4 -83 -8z"/>
<path d="M18410 15103 c-19 -2 -215 -17 -435 -34 -417 -31 -454 -35 -439 -48
9 -7 154 -1 474 19 269 17 354 25 377 38 12 7 33 12 47 12 14 0 26 5 26 10 0
6 -3 9 -7 8 -5 0 -24 -3 -43 -5z"/>
<path d="M17390 15019 c-19 -5 -161 -22 -315 -39 -154 -17 -305 -35 -335 -40
-78 -14 -322 -49 -343 -50 -10 0 -15 -4 -12 -10 3 -5 27 -7 53 -5 176 19 415
52 582 80 39 6 131 16 319 35 122 12 199 28 139 29 -14 1 -32 3 -40 5 -7 2
-29 0 -48 -5z"/>
<path d="M10080 14891 c-363 -77 -801 -415 -1081 -835 -198 -295 -299 -581
-299 -840 1 -243 86 -416 450 -906 278 -374 346 -490 371 -634 23 -135 -4
-255 -88 -381 -62 -94 -185 -235 -275 -315 -365 -326 -517 -528 -549 -731 -27
-177 31 -324 162 -409 l62 -40 -84 0 c-80 0 -176 -12 -369 -44 -449 -74 -747
-152 -915 -239 l-80 -42 -340 0 c-207 0 -409 -6 -515 -14 -96 -8 -213 -15
-259 -15 l-84 -1 -11 55 c-28 138 -120 228 -281 276 -73 21 -266 21 -420 -1
-335 -47 -779 -171 -1024 -286 l-104 -49 -109 0 c-59 0 -186 4 -281 10 -94 5
-310 15 -479 21 -347 14 -296 21 -520 -72 -405 -168 -768 -370 -973 -542 -89
-74 -200 -222 -225 -298 -8 -24 -18 -47 -22 -50 -5 -3 3 -95 16 -205 30 -244
41 -305 56 -333 13 -25 -1 -51 -26 -51 -16 0 -34 -31 -34 -59 0 -35 -81 -183
-128 -236 -49 -55 -72 -99 -97 -192 -16 -55 -21 -62 -48 -67 -23 -5 -35 -1
-50 15 -18 19 -27 21 -76 14 -31 -4 -99 -10 -151 -14 -52 -5 -107 -14 -121
-20 -21 -11 -34 -10 -73 3 -26 9 -58 16 -72 16 -14 0 -42 9 -64 20 -49 25 -67
25 -106 1 -31 -19 -46 -57 -75 -198 -7 -34 -16 -53 -25 -53 -22 0 -90 -66
-100 -98 -5 -15 -65 -81 -135 -149 -98 -94 -141 -128 -195 -153 -75 -36 -93
-53 -94 -87 0 -12 -4 -25 -10 -28 -14 -9 -13 -68 2 -83 7 -7 24 -12 38 -12 37
0 161 62 207 103 l38 35 -2 -55 c-1 -31 -7 -69 -14 -85 -14 -34 -8 -92 16
-142 22 -46 14 -66 -25 -66 -27 0 -34 -6 -50 -42 -17 -38 -17 -45 -4 -78 8
-19 22 -40 32 -47 60 -42 57 -36 39 -85 -24 -62 -22 -85 11 -105 15 -10 30
-22 34 -27 4 -6 12 -5 22 3 21 17 70 10 74 -11 2 -9 -13 -41 -33 -70 -38 -55
-39 -61 -19 -156 8 -41 41 -60 73 -43 22 12 27 26 35 109 6 66 10 72 48 72 16
0 41 9 55 20 26 20 59 26 80 12 6 -4 18 -34 26 -66 17 -65 29 -81 50 -73 22 8
37 110 37 260 0 94 5 159 16 200 13 52 14 73 3 144 -10 67 -10 90 1 122 7 23
11 63 8 95 -4 47 -10 63 -36 89 -27 28 -32 41 -35 89 -2 46 2 61 19 80 12 13
31 41 42 63 19 39 19 41 2 87 -19 50 -17 58 11 58 10 0 22 7 27 16 9 16 130
64 162 64 13 0 27 -14 39 -38 11 -21 34 -54 52 -73 39 -40 81 -123 73 -144 -4
-9 -19 -15 -35 -15 -36 0 -36 -9 -2 -67 24 -41 25 -49 14 -79 -13 -37 -3 -61
52 -121 27 -29 29 -34 21 -85 -4 -29 -6 -57 -4 -63 2 -5 6 -55 10 -110 5 -87
3 -104 -13 -130 -59 -94 -119 -205 -129 -240 -6 -22 -18 -48 -26 -57 -12 -15
-12 -20 6 -46 12 -15 27 -48 34 -71 7 -24 20 -47 30 -52 15 -8 90 1 130 16 27
11 42 -29 22 -60 -17 -26 -13 -55 8 -55 7 0 23 16 36 35 17 27 29 35 52 35 16
0 32 5 35 10 3 6 16 10 29 10 23 0 86 57 86 78 0 6 28 41 61 77 60 63 61 66
55 107 -6 35 -2 51 25 104 l32 62 -27 47 c-14 26 -26 55 -26 64 0 9 -9 45 -20
80 -18 55 -19 80 -14 181 9 147 2 163 -64 159 -38 -3 -48 0 -50 14 -3 15 5 17
58 17 55 0 64 3 89 31 l28 30 6 -30 c4 -20 16 -35 32 -43 14 -6 34 -26 45 -45
15 -26 26 -33 52 -34 27 0 40 -9 73 -49 22 -27 75 -86 118 -131 83 -87 83 -89
68 -184 -7 -42 -16 -56 -56 -92 -26 -24 -54 -43 -62 -43 -23 0 -81 -49 -113
-97 -37 -54 -41 -129 -11 -171 10 -15 21 -37 25 -49 7 -22 51 -43 91 -43 12 0
34 9 48 20 20 16 45 21 119 25 72 3 108 11 152 30 63 28 96 32 96 12 0 -19 43
-57 63 -57 36 0 108 44 114 70 3 14 10 31 16 38 6 8 8 53 4 119 l-6 105 36 -5
c20 -4 46 -15 58 -27 16 -15 35 -20 72 -20 72 0 227 33 308 65 78 32 335 79
350 64 5 -5 25 -9 44 -9 28 0 43 9 76 44 50 51 101 67 168 50 19 -4 43 1 80
18 28 14 78 33 111 42 32 10 73 26 90 37 17 10 34 19 38 19 9 0 58 -89 58
-106 0 -8 -7 -14 -15 -14 -8 0 -15 -6 -16 -12 0 -7 -2 -35 -3 -63 -1 -27 -12
-86 -24 -129 -32 -117 -30 -145 26 -255 33 -66 60 -105 90 -130 23 -19 42 -43
42 -53 0 -9 5 -20 10 -23 6 -3 28 -33 50 -65 40 -58 66 -76 107 -71 13 1 23
-5 27 -17 3 -10 22 -35 41 -56 43 -47 46 -71 9 -62 -18 5 -32 2 -44 -9 -14
-12 -42 -17 -107 -19 -85 -2 -89 -1 -115 26 -14 15 -35 28 -46 28 -11 0 -25 7
-32 15 -7 8 -21 15 -31 15 -12 0 -21 9 -24 28 -3 15 -10 41 -15 58 -6 17 -10
51 -10 76 0 53 -21 78 -66 78 -29 0 -29 0 -27 59 1 43 10 77 31 123 34 71 51
190 31 214 -6 8 -27 14 -46 14 -34 0 -36 3 -47 53 -8 32 -25 42 -61 33 -15 -4
-27 -16 -31 -31 -7 -30 -15 -31 -39 -5 -23 26 -65 26 -98 0 -14 -11 -33 -20
-43 -20 -10 0 -29 -11 -43 -24 -32 -29 -114 -41 -132 -20 -6 8 -28 14 -49 14
-30 0 -44 -6 -64 -31 -14 -17 -26 -34 -26 -39 0 -5 -12 -16 -28 -25 -15 -9
-42 -39 -61 -65 -33 -49 -33 -49 -77 -43 -42 5 -46 4 -82 -36 -20 -22 -43 -41
-49 -41 -6 0 -25 -11 -41 -25 -25 -21 -36 -24 -80 -18 -41 4 -70 -1 -153 -27
l-102 -33 -19 26 c-17 24 -26 27 -79 27 l-59 0 0 -43 c0 -35 4 -46 22 -54 18
-8 22 -19 25 -84 4 -92 15 -126 52 -167 30 -33 76 -43 97 -22 6 6 87 12 182
15 136 3 179 8 200 21 41 24 95 0 113 -50 23 -64 105 -60 111 6 4 43 18 40 43
-8 12 -24 39 -51 70 -70 28 -18 65 -41 83 -53 22 -14 50 -21 81 -21 42 0 51 5
85 39 36 37 38 43 31 78 -4 21 -7 53 -6 72 1 18 -3 49 -8 67 -8 29 -6 35 15
49 17 11 24 25 24 46 0 24 6 32 29 40 27 9 36 24 55 82 8 25 30 21 46 -8 7
-14 22 -25 32 -25 11 0 16 -4 13 -10 -3 -6 -21 -10 -39 -10 -47 0 -67 -28 -82
-112 -17 -98 -17 -134 2 -152 18 -18 85 -21 101 -5 8 8 13 5 18 -10 11 -34 -5
-103 -28 -122 -34 -27 -29 -85 12 -121 27 -24 39 -29 65 -24 28 5 35 2 54 -24
13 -16 29 -30 37 -30 11 0 12 -12 8 -55 -5 -43 -13 -63 -34 -86 -34 -36 -53
-100 -44 -143 3 -17 8 -45 12 -63 6 -35 26 -58 43 -48 6 4 5 16 -5 35 -20 38
-19 86 1 94 23 9 24 8 24 -18 0 -30 13 -39 79 -55 48 -12 55 -12 63 3 6 11 22
16 49 16 46 0 74 -13 107 -48 20 -20 29 -23 62 -18 23 4 54 0 80 -9 31 -11 52
-12 83 -5 34 8 56 5 116 -12 70 -21 75 -21 103 -5 16 9 39 17 51 17 23 0 180
-70 185 -82 2 -5 18 -8 35 -8 26 0 35 -6 46 -32 8 -17 30 -49 50 -71 l36 -40
-4 -109 -3 -109 44 -42 c24 -24 50 -57 57 -74 10 -24 25 -37 57 -49 24 -9 49
-23 55 -30 6 -8 27 -14 46 -14 23 0 46 -9 65 -25 40 -34 68 -31 118 10 55 46
75 45 100 -5 22 -42 68 -74 95 -64 22 9 205 -47 205 -62 0 -14 57 -64 73 -64
29 0 86 54 105 101 27 63 52 67 45 7 -4 -32 -14 -51 -39 -76 -19 -18 -34 -38
-34 -46 0 -23 34 -43 85 -50 53 -7 145 -60 167 -97 19 -30 98 -68 130 -62 47
9 42 31 -22 91 -33 32 -60 63 -60 69 0 15 35 23 103 23 64 0 114 -17 144 -49
15 -16 31 -21 69 -21 27 0 78 -2 114 -5 41 -3 84 1 116 10 29 8 65 12 81 9 16
-3 45 1 64 8 19 8 51 13 71 10 58 -7 116 22 180 90 46 49 60 58 75 50 10 -5
35 -12 56 -16 25 -5 51 -20 78 -47 21 -21 47 -39 57 -39 10 0 28 -7 40 -16 36
-25 138 -31 177 -10 31 17 33 17 122 -18 50 -20 95 -36 102 -36 6 0 35 13 64
30 32 18 68 30 89 30 50 0 148 53 177 96 23 33 24 39 13 80 -7 24 -12 53 -12
63 0 10 -9 29 -19 43 -11 13 -39 62 -64 109 -50 95 -83 118 -74 52 3 -21 11
-57 18 -80 11 -37 11 -44 -3 -55 -8 -7 -18 -24 -21 -38 l-6 -25 -131 2 c-120
2 -131 1 -142 -17 -7 -11 -20 -20 -29 -20 -16 0 -184 58 -244 85 -16 7 -50 22
-75 33 -25 11 -78 25 -119 32 -41 6 -78 13 -83 17 -6 3 -8 19 -5 37 13 86 -57
117 -210 96 -64 -9 -89 -17 -102 -33 -23 -29 -45 -49 -76 -71 -32 -22 -68 -97
-59 -123 4 -10 16 -28 27 -41 12 -13 15 -22 8 -22 -6 0 -21 -16 -32 -35 l-21
-35 -61 6 c-34 3 -83 14 -109 25 -26 11 -69 22 -95 25 -26 4 -56 13 -65 22
-19 16 -144 62 -170 62 -10 0 -18 7 -18 15 0 23 -35 37 -65 25 -14 -5 -44 -10
-67 -10 -37 0 -40 2 -34 23 6 27 -18 67 -41 67 -9 0 -40 -8 -69 -17 -47 -14
-57 -15 -80 -2 -73 39 -178 184 -190 264 -3 26 -17 59 -30 75 -13 15 -24 30
-24 33 0 3 14 8 31 12 28 6 35 2 83 -49 45 -48 57 -56 88 -56 20 0 47 4 60 9
14 5 43 4 74 -2 45 -9 57 -8 92 10 l41 20 36 -38 c32 -35 41 -39 83 -39 70 0
141 40 197 111 50 64 101 146 139 224 25 50 58 209 48 233 -5 14 -65 42 -92
42 -9 0 -38 -16 -64 -36 -25 -19 -62 -42 -81 -50 -19 -7 -49 -27 -67 -42 -24
-21 -48 -31 -85 -35 -30 -3 -55 -2 -59 4 -3 5 -21 7 -40 3 -28 -5 -37 -2 -54
17 -10 13 -19 29 -20 36 0 6 -12 21 -27 33 -23 18 -36 21 -71 16 -23 -3 -56
-13 -73 -22 -28 -14 -32 -14 -48 0 -28 25 -88 20 -146 -13 -51 -29 -54 -29
-125 -20 -40 6 -84 8 -98 4 -32 -8 -173 15 -193 32 -17 14 -48 17 -64 5 -6 -4
-18 -19 -27 -34 -24 -37 -55 -45 -79 -19 -10 11 -19 25 -19 31 0 5 -16 28 -36
50 -27 29 -44 40 -66 40 -18 0 -38 9 -52 25 -13 14 -28 25 -35 25 -6 0 -11 18
-11 45 0 40 -4 47 -37 70 -40 27 -82 32 -111 14 -14 -9 -27 -7 -58 9 -21 11
-55 23 -74 27 -44 9 -70 32 -70 60 0 26 -23 57 -106 142 -33 35 -68 63 -77 63
-12 0 -17 9 -17 30 0 24 -9 35 -48 61 -54 35 -88 79 -103 132 -15 55 -70 130
-111 152 -42 22 -46 32 -21 51 25 19 78 17 94 -2 31 -37 94 -68 142 -69 32 -1
57 -9 78 -24 28 -21 32 -22 48 -7 26 24 53 10 134 -67 50 -48 77 -66 105 -71
20 -3 60 -19 87 -36 92 -54 251 -131 270 -131 11 1 66 3 122 6 l101 5 22 -37
c16 -27 24 -33 33 -24 14 14 60 14 75 -1 8 -8 73 -12 204 -14 154 -1 201 -5
231 -18 28 -12 51 -15 89 -10 42 6 53 4 64 -10 10 -15 22 -17 71 -12 151 16
176 17 222 7 36 -8 66 -7 105 0 49 10 58 9 88 -9 32 -19 36 -20 113 -5 121 22
259 22 320 -1 l50 -18 33 30 c31 29 32 32 32 117 0 76 4 94 31 151 32 67 44
74 103 71 25 -2 31 3 38 31 15 58 77 66 163 22 22 -11 49 -20 60 -20 25 0 161
-93 175 -120 6 -10 10 -28 10 -39 0 -11 20 -39 46 -63 34 -32 44 -47 40 -64
-7 -27 50 -94 148 -172 39 -31 107 -92 151 -136 90 -88 153 -126 213 -126 51
0 90 -14 122 -45 52 -50 163 -72 205 -41 17 12 18 24 12 131 -5 89 -3 125 8
150 7 19 11 43 8 53 -3 13 3 25 18 35 27 19 66 13 128 -20 24 -13 54 -23 65
-23 12 0 57 -21 101 -46 79 -44 80 -45 108 -29 22 13 40 15 75 10 62 -9 76
-17 147 -85 50 -47 68 -58 105 -63 25 -3 59 -13 75 -21 42 -22 76 -20 165 10
l78 27 35 -22 c40 -24 78 -21 112 9 11 10 36 20 55 23 52 7 145 26 236 48 113
26 142 25 154 -6 9 -24 10 -24 51 -10 25 9 74 15 123 14 44 -1 72 -4 61 -6
-26 -7 -55 -33 -55 -50 0 -7 -8 -17 -17 -20 -37 -14 -124 -81 -148 -113 -20
-27 -25 -46 -25 -92 0 -32 -7 -75 -15 -95 -20 -48 -19 -73 5 -98 l19 -20 -62
-2 c-97 -2 -119 20 -72 71 29 32 30 35 9 64 -18 26 -56 29 -107 7 -34 -14 -36
-14 -42 5 -4 11 -17 28 -30 36 -13 9 -25 25 -27 37 -2 12 -15 28 -30 36 -24
14 -28 14 -48 -4 -17 -16 -21 -27 -17 -60 11 -87 27 -148 47 -182 20 -34 20
-36 4 -55 -16 -17 -21 -39 -40 -171 -5 -36 -11 -47 -21 -43 -8 4 -20 6 -26 6
-7 0 -20 14 -30 31 -14 25 -22 30 -41 25 -20 -5 -30 3 -65 49 -50 67 -93 92
-128 76 -34 -16 -37 -15 -73 22 -29 29 -31 36 -27 80 5 55 -10 97 -34 97 -28
0 -109 -51 -122 -77 -7 -13 -24 -30 -37 -36 -13 -7 -28 -21 -34 -32 -6 -11
-29 -49 -52 -85 -23 -36 -47 -76 -54 -90 -19 -38 -51 -70 -71 -70 -10 0 -21
-12 -27 -30 -13 -37 -67 -71 -107 -68 -24 3 -31 -1 -33 -20 -2 -12 -11 -26
-20 -31 -30 -15 -268 -24 -309 -11 -70 22 -105 40 -101 52 6 16 166 58 253 66
40 4 83 15 98 24 14 10 39 18 54 18 39 1 103 32 134 66 29 33 99 131 99 140 0
3 -10 4 -22 3 -13 -2 -41 9 -63 24 -22 15 -47 27 -56 27 -8 0 -22 15 -30 33
-14 33 -35 39 -84 23 -15 -5 -23 -1 -30 16 -11 25 -49 36 -69 19 -16 -13 -105
68 -115 105 -7 26 -7 25 -50 -30 -24 -31 -47 -56 -51 -56 -4 0 -10 9 -13 20
-4 14 -14 20 -36 20 -33 0 -58 -21 -94 -80 -12 -19 -33 -44 -47 -55 -55 -43
-70 -67 -70 -108 0 -47 40 -122 70 -132 15 -5 20 -15 20 -39 0 -18 15 -62 33
-97 41 -81 80 -109 153 -109 29 0 55 4 58 8 3 5 40 9 83 10 244 4 287 8 330
30 23 12 44 26 48 32 3 5 15 10 26 10 11 0 22 7 25 15 4 8 17 15 30 15 19 0
24 -5 24 -27 0 -39 12 -54 51 -62 26 -5 35 -13 41 -36 4 -17 22 -41 40 -56 44
-33 133 -70 152 -63 11 4 16 0 16 -13 0 -35 29 -63 65 -63 19 0 39 6 45 12 5
7 19 24 29 38 16 20 22 23 32 13 7 -7 27 -13 44 -13 24 0 35 6 44 26 8 17 17
24 27 20 9 -3 20 -6 25 -6 5 0 9 -8 9 -19 0 -11 9 -21 21 -24 15 -4 20 -11 15
-23 -4 -9 -9 -50 -13 -90 -6 -79 1 -98 44 -115 33 -12 29 -41 -16 -123 -25
-45 -44 -94 -50 -133 -11 -72 -22 -96 -63 -139 -16 -17 -31 -40 -32 -50 -3
-22 -82 -68 -91 -53 -19 30 -75 -15 -75 -60 0 -33 -70 -44 -106 -16 -10 8 -22
15 -26 15 -13 0 -26 -67 -26 -142 -1 -86 20 -128 62 -128 12 0 31 -7 42 -15
29 -22 70 -18 114 10 36 23 100 97 100 115 0 16 55 70 71 70 23 0 46 29 54 70
4 19 15 44 24 55 10 11 28 37 40 58 25 41 32 44 55 22 11 -12 13 -22 6 -39
-13 -36 0 -244 17 -258 28 -23 46 14 53 113 6 86 8 92 37 115 23 18 29 29 26
48 -3 15 3 35 18 55 21 29 22 31 5 50 -16 18 -16 21 -1 52 10 18 26 41 36 52
10 12 19 24 19 29 0 4 14 24 32 44 24 27 34 50 39 92 9 59 4 92 -12 92 -5 0
-9 -8 -9 -18 0 -13 -52 -72 -64 -72 -7 0 -26 85 -37 160 -10 74 -9 96 6 165
10 44 20 98 23 120 6 51 15 62 63 75 l39 11 0 52 c0 61 20 97 54 97 31 0 50
24 42 54 -3 13 -22 47 -41 76 -19 29 -35 53 -35 55 0 2 8 5 18 7 27 7 85 -27
126 -73 32 -34 37 -47 33 -73 -3 -17 -3 -43 0 -57 4 -24 7 -25 58 -21 44 4 59
0 81 -17 31 -25 49 -26 86 -7 26 14 127 14 190 0 24 -5 28 -2 33 23 11 49 14
53 35 53 11 0 20 6 20 14 0 8 18 36 40 61 22 25 40 55 40 65 0 10 5 22 10 25
15 9 12 36 -5 55 -10 11 -16 42 -17 91 l-2 75 39 37 c23 21 49 37 63 37 13 0
58 12 99 27 62 22 80 34 104 66 17 24 29 53 29 71 0 20 13 50 35 81 39 54 59
70 76 60 5 -4 24 -1 40 5 25 11 32 10 49 -5 11 -10 20 -31 20 -46 0 -17 11
-42 29 -61 27 -30 31 -31 56 -20 23 11 31 10 54 -5 14 -10 40 -18 58 -19 18
-1 55 -11 84 -24 49 -20 57 -21 112 -9 82 17 86 11 58 -101 -6 -25 -13 -57
-16 -72 -6 -31 -56 -61 -117 -71 -45 -7 -188 -73 -188 -87 0 -5 -33 -43 -74
-84 -53 -53 -88 -79 -123 -91 -90 -32 -93 -34 -93 -58 0 -30 -27 -55 -67 -63
-25 -5 -33 -2 -42 14 -15 27 -14 29 8 35 11 2 31 23 45 46 22 34 31 41 59 41
25 0 42 9 67 35 33 34 34 36 21 71 -12 33 -11 38 9 59 36 38 13 115 -34 115
-12 0 -38 9 -59 20 -47 25 -87 25 -119 0 -21 -16 -27 -33 -38 -112 -7 -51 -17
-99 -23 -106 -5 -7 -11 -61 -13 -120 -3 -131 18 -217 53 -217 38 -1 35 -12
-10 -44 -40 -29 -45 -37 -56 -96 l-13 -65 -39 0 c-22 0 -47 -4 -57 -9 -9 -5
-29 -14 -44 -21 -15 -7 -33 -25 -39 -39 -7 -14 -29 -34 -50 -44 -70 -33 -92
-56 -85 -90 4 -17 13 -38 21 -48 13 -13 14 -25 6 -60 -6 -24 -11 -65 -11 -91
0 -41 -5 -52 -49 -100 -61 -66 -100 -79 -271 -84 -118 -4 -128 -5 -196 -39
-84 -42 -124 -82 -124 -126 0 -35 -13 -64 -46 -99 -12 -14 -26 -44 -30 -66 -5
-37 -4 -43 15 -49 28 -9 44 -41 37 -75 -4 -22 -1 -29 14 -33 31 -8 25 -55 -13
-103 -141 -176 -176 -199 -310 -199 -73 0 -80 2 -100 26 -12 15 -38 30 -57 34
-57 12 -109 43 -130 78 -19 31 -20 31 -20 7 0 -42 -25 -67 -72 -73 -24 -3 -54
-7 -68 -9 -20 -2 -31 7 -61 51 -41 62 -87 92 -179 120 -79 24 -135 59 -216
133 -99 92 -129 184 -76 230 24 22 134 66 221 90 41 10 88 26 104 35 28 14 29
17 24 64 -6 44 -3 52 18 71 14 12 25 30 25 39 0 10 4 20 9 23 5 3 12 21 15 41
6 32 3 39 -49 90 l-55 56 -52 -16 c-28 -8 -63 -15 -77 -15 -13 0 -44 -10 -69
-21 -36 -18 -48 -19 -68 -10 -14 6 -39 11 -57 11 -45 0 -164 -35 -183 -54 -8
-9 -22 -16 -30 -16 -7 0 -19 -9 -26 -20 -11 -16 -24 -20 -73 -20 -70 -1 -179
-22 -200 -40 -8 -7 -15 -24 -15 -38 0 -29 -83 -112 -112 -112 -20 0 -31 -15
-34 -48 -2 -13 -10 -34 -19 -45 -8 -12 -26 -39 -40 -59 -39 -59 -67 -72 -159
-75 -56 -1 -88 2 -103 12 -17 11 -28 12 -52 4 -41 -15 -71 -6 -139 40 -31 21
-72 43 -91 50 -62 20 -152 14 -243 -18 -139 -49 -168 -53 -346 -46 l-163 7
-50 34 c-70 49 -90 55 -219 65 -63 4 -154 13 -202 18 l-87 10 -32 -30 c-39
-37 -105 -55 -244 -69 -134 -14 -219 -40 -271 -83 -44 -38 -100 -77 -107 -77
-3 0 -7 12 -9 28 -2 19 -13 32 -40 47 -21 11 -38 27 -38 36 0 27 -21 36 -90
42 -36 3 -87 10 -114 16 -34 8 -53 8 -62 0 -9 -7 -24 -4 -55 10 -53 26 -70 26
-102 0 -23 -17 -32 -19 -64 -10 -56 16 -68 14 -103 -16 -32 -26 -32 -26 -65
-9 -29 16 -37 16 -61 5 -40 -19 -53 -62 -32 -100 40 -69 -77 0 -189 112 -29
29 -31 35 -26 83 3 36 -1 66 -14 100 -15 42 -27 54 -78 85 l-60 37 -1 82 c-1
45 -4 85 -8 89 -3 3 -31 2 -61 -4 -40 -7 -62 -6 -82 3 -34 14 -173 44 -209 44
-14 0 -53 -10 -88 -22 -77 -27 -96 -21 -96 29 0 41 -22 83 -44 83 -7 0 -23
-11 -36 -25 -29 -31 -81 -33 -127 -6 -26 17 -33 28 -38 68 -4 26 -9 55 -11 65
-6 21 -45 30 -80 18 -16 -5 -99 -21 -184 -34 -85 -13 -168 -29 -183 -35 -39
-15 -72 -14 -127 6 -45 16 -48 16 -81 -3 -39 -23 -99 -122 -99 -163 0 -14 9
-41 20 -59 20 -32 26 -94 14 -127 -9 -21 -67 -50 -134 -65 -30 -6 -69 -18 -87
-26 -17 -8 -38 -14 -46 -14 -28 0 -28 -19 -2 -92 221 -620 658 -1079 1325
-1395 81 -38 128 -57 370 -151 201 -78 636 -193 910 -241 63 -11 129 -23 145
-26 248 -46 697 -104 1005 -130 988 -82 1886 -105 4200 -105 3234 1 4475 30
5535 130 833 79 1676 255 2155 450 269 109 660 310 660 339 0 12 -26 21 -62
21 -21 0 -29 -4 -25 -13 4 -10 -6 -12 -47 -6 -28 3 -61 3 -72 -2 -35 -13 -45
8 -23 48 11 19 16 40 13 46 -4 7 -4 9 1 5 11 -11 35 38 35 72 0 15 -7 33 -15
40 -8 7 -15 9 -15 5 0 -4 -6 -3 -13 4 -10 7 -17 7 -24 0 -8 -8 -13 -8 -17 0
-4 6 -20 11 -36 11 -16 0 -32 5 -35 10 -3 6 -14 9 -23 9 -15 -1 -15 -2 1 -6
19 -5 24 -23 6 -23 -6 0 -22 8 -35 19 -14 11 -34 17 -51 14 -15 -2 -84 -6
-152 -9 -68 -2 -131 -9 -140 -13 -16 -9 -88 -7 -179 3 -32 4 -44 2 -48 -9 -7
-18 -28 -19 -57 -3 -26 15 -67 18 -67 5 0 -4 -10 -7 -22 -5 -13 2 -22 9 -21
16 2 6 -2 12 -7 12 -6 0 -10 -7 -10 -15 0 -8 -4 -15 -10 -15 -5 0 -10 8 -10
18 -1 16 -1 16 -11 0 -12 -22 -94 -26 -86 -5 2 6 10 11 16 9 7 -1 10 2 7 6 -8
14 -55 2 -50 -12 5 -14 -63 -9 -72 5 -3 5 -18 9 -34 9 -16 0 -32 5 -35 10 -10
16 -56 12 -76 -6 -19 -17 -55 -12 -44 6 4 6 -9 4 -29 -4 -33 -14 -40 -13 -37
7 0 4 -6 7 -15 7 -8 0 -13 -4 -9 -9 11 -19 -18 -24 -32 -5 -13 18 -15 18 -24
2 -13 -24 -74 -24 -89 0 -11 16 -11 16 -6 0 7 -22 -2 -23 -26 -2 -14 13 -37
17 -104 16 -48 0 -91 -5 -97 -11 -15 -15 -64 -14 -70 2 -4 9 -8 9 -15 -2 -8
-11 -16 -11 -45 -2 -41 14 -177 4 -142 -10 19 -7 19 -8 -2 -8 -12 -1 -25 4
-28 9 -8 14 -45 13 -45 -1 0 -8 -14 -10 -40 -6 -22 3 -43 1 -46 -4 -3 -5 -10
-9 -15 -9 -6 0 -8 4 -4 9 3 5 1 12 -5 16 -5 3 -10 1 -10 -4 0 -6 -9 -11 -20
-11 -10 0 -23 -8 -29 -17 -8 -15 -12 -16 -36 -3 -16 9 -29 10 -33 5 -4 -6 -17
-10 -29 -11 -110 -3 -115 -4 -110 -19 4 -8 2 -17 -3 -20 -6 -4 -10 2 -11 12 0
16 -1 16 -8 -1 -7 -18 -8 -18 -14 -2 -5 13 -11 15 -26 7 -10 -6 -21 -7 -25 -4
-3 3 -6 -1 -6 -10 0 -20 -11 -22 -28 -5 -9 9 -12 8 -12 -5 0 -10 -8 -17 -20
-17 -11 0 -20 -4 -20 -10 0 -5 -4 -10 -10 -10 -5 0 -10 8 -10 18 0 13 -6 10
-25 -13 -21 -25 -26 -28 -35 -15 -5 8 -10 21 -10 28 0 16 -29 15 -36 -2 -3 -9
-22 -13 -55 -13 -33 1 -54 -4 -60 -14 -8 -12 -12 -11 -24 5 -11 14 -21 17 -49
12 -20 -4 -36 -12 -36 -18 0 -9 -3 -9 -12 0 -18 18 -48 15 -48 -6 0 -10 -8
-18 -17 -18 -10 -1 -34 -4 -54 -8 -27 -6 -40 -4 -52 8 -18 19 -74 21 -79 4 -2
-6 -20 -10 -39 -9 -18 1 -38 2 -44 1 -102 -9 -118 -13 -122 -31 -6 -20 -38
-26 -48 -8 -5 7 -12 5 -23 -4 -14 -12 -28 -13 -72 -6 -30 5 -62 7 -70 4 -32
-10 -295 -3 -306 8 -13 13 -61 7 -75 -9 -15 -18 -73 -12 -99 11 -8 7 -22 15
-30 18 -8 3 17 6 55 6 51 1 66 4 55 11 -9 7 -51 8 -109 4 -66 -5 -92 -3 -87 4
4 6 -3 16 -14 22 -14 8 -20 8 -20 0 0 -20 28 -40 57 -40 l28 -1 -28 -15 c-26
-14 -30 -14 -46 0 -23 21 -81 21 -81 1 0 -8 -7 -15 -16 -15 -13 0 -14 3 -5 14
15 18 -5 26 -65 26 -32 0 -44 -4 -44 -15 0 -25 -24 -17 -37 12 -7 15 -13 32
-13 39 0 6 -7 15 -16 18 -24 9 -31 7 -14 -4 13 -8 12 -10 -3 -10 -10 0 -22 10
-27 23 -5 12 -9 16 -9 9 -1 -7 -8 -21 -17 -29 -13 -14 -17 -14 -24 -2 -7 10
-11 8 -19 -11 -7 -19 -10 -21 -10 -7 -1 17 -7 18 -53 13 -80 -8 -81 -8 -113 5
-34 13 -94 12 -112 -2 -13 -12 -28 5 -18 21 3 6 -2 11 -12 12 -55 4 -83 2 -83
-7 -1 -5 -10 1 -21 15 -19 22 -22 23 -30 7 -12 -21 -31 -23 -23 -2 7 17 -11
21 -21 5 -10 -16 -28 -12 -21 5 7 18 -5 20 -22 3 -9 -9 -12 -9 -12 0 0 10 -5
10 -21 2 -17 -9 -24 -8 -39 10 -11 12 -20 16 -22 9 -3 -8 -15 -8 -47 1 -24 6
-57 10 -75 9 -62 -6 -272 14 -298 27 -15 8 -42 14 -60 14 -18 0 -40 4 -48 10
-9 5 -19 5 -26 -1 -8 -7 -14 -7 -18 0 -4 6 -12 8 -19 5 -7 -2 -22 4 -32 16
-18 20 -88 29 -99 12 -3 -5 -19 -7 -36 -4 -27 4 -31 8 -26 28 7 27 3 29 -24
14 -11 -6 -21 -6 -24 -1 -4 5 -18 5 -35 -2 -23 -8 -32 -8 -44 5 -18 17 -139
43 -162 35 -8 -4 -27 0 -42 8 -15 8 -36 12 -46 9 -12 -4 -24 1 -33 15 -12 16
-21 20 -41 15 -18 -5 -24 -3 -19 5 5 8 -5 10 -33 8 -43 -4 -49 1 -28 22 10 11
2 12 -44 8 -49 -4 -58 -2 -78 19 -13 13 -31 24 -41 24 -10 0 -20 6 -23 13 -3
10 -9 10 -26 0 -27 -17 -32 -16 -25 1 4 11 0 13 -16 9 -15 -4 -26 1 -36 16
-19 27 -37 27 -29 1 4 -12 2 -20 -5 -20 -6 0 -9 4 -5 9 3 6 -10 13 -30 17 -29
5 -33 9 -24 20 21 26 -40 31 -107 9 -25 -8 -43 23 -22 37 10 6 8 8 -4 8 -10 0
-18 5 -18 10 0 7 -7 7 -21 0 -11 -7 -27 -9 -35 -6 -8 3 -23 0 -34 -6 -10 -7
-23 -9 -27 -5 -4 5 -1 12 7 17 12 7 11 10 -5 15 -11 4 -28 11 -37 16 -24 12
-28 11 -28 -6 0 -10 -11 -15 -35 -15 -37 0 -51 25 -17 32 10 2 13 6 6 10 -6 4
-23 0 -38 -7 -27 -14 -46 -12 -46 5 0 10 -55 70 -64 70 -4 0 -6 -8 -4 -17 2
-10 -4 -19 -14 -21 -12 -2 -16 1 -13 11 3 7 -1 20 -10 27 -13 11 -15 9 -15
-10 0 -13 -5 -20 -12 -18 -18 6 -22 39 -7 49 7 4 10 11 7 15 -4 4 -18 0 -32
-9 -26 -18 -36 -13 -36 16 0 31 -28 82 -53 93 -12 5 -20 16 -18 24 2 8 4 39 5
68 0 34 4 52 12 52 18 0 22 31 7 60 -17 34 -17 70 1 70 8 0 16 12 18 26 2 20
12 29 43 40 22 7 45 21 52 31 16 21 17 65 2 80 -18 18 -20 63 -3 63 17 0 19
16 2 26 -7 5 -5 11 8 21 16 12 17 15 4 23 -12 8 -11 11 8 16 24 7 29 20 10 27
-10 4 -9 8 2 16 8 6 12 11 7 11 -4 0 -1 10 8 23 8 13 12 26 9 29 -11 12 17 48
36 48 19 0 89 66 90 84 0 4 14 24 30 43 34 38 39 73 11 80 -10 2 -25 16 -32
30 -12 22 -11 27 4 38 9 7 27 11 40 10 12 -1 14 0 5 2 -41 10 -12 48 62 81 25
11 60 23 78 27 23 5 36 15 43 31 13 37 60 73 93 74 19 0 46 13 75 38 76 63
276 180 288 168 3 -2 -17 -20 -44 -39 -26 -20 -58 -49 -71 -66 l-22 -30 24
-17 c14 -8 30 -13 37 -9 20 13 173 65 190 65 9 0 24 9 34 20 10 11 31 20 46
20 18 0 36 10 52 29 29 34 84 49 117 31 30 -16 70 1 92 39 9 16 29 37 45 47
15 9 46 29 68 44 90 62 151 91 214 105 107 22 155 47 200 105 34 42 41 60 41
95 0 70 10 101 46 139 31 32 34 42 34 94 0 52 4 65 40 116 49 70 72 112 80
151 4 23 12 31 38 36 37 7 72 35 72 56 0 8 -11 25 -25 39 -22 21 -25 34 -25
90 0 93 17 149 53 180 42 36 113 69 177 84 81 18 191 55 241 80 24 12 75 52
112 89 l68 66 167 -1 c151 0 173 -2 227 -24 76 -30 150 -74 195 -116 53 -50
107 -65 270 -74 80 -4 161 -11 182 -15 49 -9 81 -47 110 -130 23 -64 29 -72
69 -92 82 -41 161 -54 373 -61 139 -5 208 -11 218 -20 9 -7 18 -38 22 -74 8
-80 -6 -104 -68 -113 -25 -4 -51 -14 -57 -22 -7 -8 -27 -20 -46 -28 -71 -30
-24 -110 83 -140 32 -10 66 -24 74 -32 9 -9 10 -13 2 -9 -11 7 -69 -8 -142
-36 l-25 -10 30 -21 c17 -12 50 -40 75 -63 25 -24 63 -47 86 -53 49 -13 81
-46 91 -91 3 -19 17 -55 30 -79 13 -24 23 -54 23 -65 0 -12 11 -38 25 -58 14
-20 25 -42 25 -47 0 -19 38 -31 94 -31 71 0 92 -11 145 -75 37 -46 49 -54 85
-58 22 -2 50 0 60 6 11 5 43 7 71 4 32 -3 57 -1 64 6 6 6 32 10 58 8 32 -1 61
5 87 18 27 14 43 17 51 11 7 -6 42 -11 79 -12 82 -2 95 9 103 85 6 62 24 81
108 117 25 11 45 21 45 23 0 2 -5 19 -11 36 -16 45 -52 57 -101 35 l-39 -17
-34 33 c-24 23 -35 43 -35 62 0 16 -7 31 -15 34 -9 4 -15 19 -15 36 0 16 -11
44 -26 63 -21 27 -33 35 -67 37 l-42 3 3 41 c3 43 -6 56 -48 69 -14 4 -31 17
-39 27 -7 11 -23 23 -34 27 -20 7 -18 10 18 34 22 15 72 33 111 41 86 18 138
47 152 84 5 15 16 45 24 67 16 48 100 112 157 120 20 3 57 12 82 20 65 21 139
19 207 -6 31 -11 122 -38 202 -59 80 -21 157 -43 172 -49 15 -6 63 -9 106 -8
76 2 80 1 141 -38 34 -22 77 -52 96 -67 18 -16 37 -28 43 -28 6 0 19 -10 29
-23 26 -33 80 -40 131 -17 23 11 42 23 42 27 0 5 30 40 68 79 209 219 270 294
272 331 0 7 7 21 15 30 9 10 26 32 39 48 28 35 49 36 251 16 196 -20 181 -15
261 -96 40 -41 81 -89 90 -107 9 -18 34 -54 55 -79 22 -26 39 -56 39 -67 0
-22 18 -32 60 -32 38 0 72 15 148 67 129 89 134 101 128 291 -6 162 -11 189
-50 250 -52 83 -78 180 -60 227 9 23 53 43 148 65 98 24 138 39 205 80 45 28
55 30 147 30 82 0 110 -4 166 -26 75 -29 101 -28 106 1 6 33 19 39 94 46 65 6
74 9 98 39 26 31 29 33 81 27 36 -3 74 1 111 11 51 15 58 20 57 42 -1 14 1 32
5 41 4 10 3 20 -3 24 -6 3 -8 16 -5 29 4 17 -1 27 -20 39 -14 10 -32 17 -40
17 -29 0 -27 20 5 48 39 34 35 57 -14 77 -18 7 -41 23 -51 34 -25 27 -6 51 40
51 41 0 53 17 21 29 -14 5 -34 23 -47 40 -25 37 -20 67 16 83 22 10 24 16 24
89 0 76 -1 79 -25 85 -14 3 -38 3 -53 0 -64 -16 -80 -17 -87 -6 -5 7 3 21 18
34 28 23 45 80 28 91 -6 3 -21 -1 -33 -9 -47 -33 -95 -17 -127 42 -12 22 -52
20 -72 -4 -13 -16 -55 -19 -64 -4 -13 20 -43 10 -55 -20 -13 -31 -37 -44 -63
-35 -19 8 -67 -32 -67 -55 0 -46 -64 -53 -116 -14 -33 25 -49 27 -97 9 -8 -4
-29 6 -46 21 -30 25 -34 26 -71 14 -43 -14 -90 -7 -90 15 0 17 79 65 108 65
11 0 24 5 28 11 3 6 26 20 49 30 34 15 44 26 54 59 7 24 23 47 39 57 15 10 31
24 35 31 9 14 82 8 103 -9 15 -12 87 1 97 18 12 20 55 16 67 -7 16 -30 27 -24
34 19 3 21 13 41 21 45 11 4 13 15 9 48 -6 39 -3 47 26 75 l31 30 -50 59
c-119 140 -127 147 -149 142 -27 -7 -68 27 -77 64 -7 29 -32 42 -58 33 -8 -4
-21 1 -28 12 -20 26 -105 53 -167 53 -30 0 -68 6 -85 14 -21 9 -78 16 -159 18
-108 3 -124 2 -107 -10 36 -25 41 -48 20 -89 -11 -21 -29 -44 -41 -51 -19 -12
-25 -10 -47 12 -20 20 -23 29 -14 39 8 11 7 22 -5 46 -19 37 -13 61 16 61 36
0 21 16 -25 27 l-45 10 0 -38 c0 -34 -3 -39 -22 -39 -22 -1 -220 -18 -938 -79
-190 -16 -364 -30 -386 -30 l-42 -1 4 129 c6 173 19 310 31 322 6 6 41 14 79
19 192 26 729 132 763 150 9 5 66 23 126 39 120 33 453 141 498 161 15 7 27
20 27 29 0 38 -41 750 -46 788 -4 37 -12 46 -77 96 -65 49 -198 178 -260 251
l-24 29 -89 -11 c-49 -6 -185 -14 -303 -17 -118 -4 -227 -9 -243 -12 -21 -4
-35 -19 -59 -62 -49 -87 -170 -201 -259 -244 -102 -50 -175 -67 -310 -74 -197
-10 -315 34 -453 170 -46 45 -94 96 -108 114 l-24 31 -115 -8 c-63 -5 -214
-16 -335 -25 -237 -17 -458 -33 -570 -42 -69 -5 -71 -6 -136 -67 -62 -58 -224
-179 -252 -189 -40 -14 23 -17 184 -7 307 18 451 19 466 4 20 -19 16 -24 -18
-24 -20 0 -28 -4 -23 -12 4 -6 -1 -17 -11 -24 -15 -11 -16 -16 -5 -29 15 -18
4 -20 -15 -2 -7 8 -31 13 -54 11 -46 -2 -62 -10 -39 -19 10 -4 14 -14 11 -26
-3 -10 0 -25 6 -33 7 -9 -3 -6 -29 6 -46 23 -75 18 -65 -12 5 -15 3 -18 -9
-14 -9 3 -16 1 -16 -5 0 -14 -33 -14 -47 0 -13 13 -33 4 -33 -16 0 -7 -12 -16
-27 -20 -34 -8 -63 -33 -63 -54 0 -13 -2 -14 -9 -2 -8 12 -12 12 -24 2 -10 -8
-17 -9 -22 -1 -11 17 -25 11 -35 -15 -8 -21 -14 -24 -35 -19 -18 4 -27 2 -31
-10 -3 -9 -12 -16 -19 -16 -19 0 -44 -45 -38 -69 4 -15 1 -21 -10 -21 -24 0
-32 -22 -14 -35 25 -18 21 -35 -7 -35 -31 0 -35 -7 -42 -66 -3 -26 -14 -66
-25 -89 -11 -24 -21 -54 -23 -68 -1 -14 -10 -37 -20 -52 -10 -15 -15 -33 -12
-40 3 -8 -12 -32 -35 -54 -22 -23 -42 -54 -45 -71 -4 -16 -11 -30 -16 -30 -5
0 -14 -13 -19 -30 -6 -16 -17 -30 -25 -30 -8 0 -14 -4 -14 -10 0 -5 -7 -10
-15 -10 -8 0 -19 -9 -25 -20 -8 -15 -17 -19 -31 -15 -15 5 -22 2 -25 -12 -4
-14 -26 -22 -105 -37 -83 -16 -99 -22 -99 -37 0 -23 -16 -25 -24 -4 -6 16 -51
21 -61 6 -3 -5 3 -11 12 -13 10 -3 -1 -6 -24 -9 -31 -3 -43 -1 -43 8 0 17 -15
16 -30 -2 -14 -17 -80 -21 -80 -5 0 6 -9 10 -19 10 -11 0 -32 16 -47 35 -22
29 -26 42 -21 76 11 82 87 148 312 269 212 115 304 215 335 364 14 68 7 158
-18 220 -35 91 -124 187 -227 246 l-58 33 84 18 c232 49 412 143 606 316 300
268 534 750 632 1303 104 587 87 1275 -45 1870 -158 710 -512 1199 -970 1343
-307 97 -689 64 -962 -83 -220 -119 -449 -345 -606 -600 -257 -415 -409 -959
-447 -1607 -23 -390 21 -869 115 -1239 60 -238 184 -532 299 -706 180 -277
430 -482 690 -567 37 -13 65 -26 62 -30 -2 -5 -30 -16 -62 -24 -64 -19 -268
-119 -341 -169 -273 -185 -519 -497 -588 -745 -15 -55 -18 -59 -41 -55 -13 2
-22 7 -19 10 3 2 -10 17 -29 32 -33 26 -34 28 -13 33 34 9 18 16 -45 18 -39 2
-57 7 -58 16 -1 7 -2 19 -3 25 -1 9 12 12 42 10 33 -3 42 0 42 12 0 9 -7 16
-15 16 -8 0 -24 8 -34 18 -11 9 -27 23 -36 30 -15 13 -15 15 1 33 17 19 16 19
-34 14 -48 -4 -67 5 -41 20 6 4 8 14 5 22 -4 10 0 13 17 11 14 -2 22 2 22 12
0 8 -11 17 -24 18 -17 3 -20 6 -12 12 16 9 6 46 -14 53 -11 5 -12 -2 -8 -30 6
-34 5 -36 -18 -30 -13 4 -27 7 -31 7 -4 0 -3 14 2 32 7 21 6 36 -1 45 -16 18
13 28 40 14 30 -17 34 3 6 35 -13 15 -23 30 -21 31 6 6 36 -9 36 -18 0 -5 6
-9 13 -9 7 0 13 15 13 39 2 39 2 40 -35 38 -41 -2 -54 15 -19 25 16 4 18 6 6
7 -10 1 -18 6 -18 12 0 7 -10 9 -25 7 -16 -4 -25 -1 -25 7 0 9 12 12 35 10 40
-4 54 9 28 25 -13 8 -14 13 -5 16 18 8 15 37 -4 30 -10 -4 -14 -1 -12 6 7 20
38 22 38 3 0 -11 7 -15 23 -13 12 2 21 9 19 17 -2 8 2 17 9 21 8 6 8 13 0 26
-6 12 -11 14 -11 5 0 -10 -3 -11 -13 -2 -8 6 -17 8 -20 4 -4 -3 -7 -1 -7 5 0
7 9 12 20 12 11 0 20 5 20 11 0 6 7 8 16 5 8 -3 26 1 39 10 16 11 58 18 127
21 57 3 108 9 113 13 6 5 107 12 225 16 118 4 238 10 265 13 l50 6 -84 58 -83
58 -280 -10 c-153 -6 -283 -13 -289 -17 -6 -3 -38 -10 -72 -15 -34 -4 -102
-15 -152 -24 -49 -9 -115 -20 -145 -26 -100 -17 -223 -30 -385 -39 -88 -5
-171 -11 -185 -14 -31 -7 -548 -44 -690 -49 -19 0 -66 11 -103 27 -93 37 -199
56 -317 56 -135 0 -290 -34 -370 -82 -63 -37 -373 -61 -1000 -78 -212 -5 -479
-10 -595 -10 -181 0 -219 -3 -275 -20 -36 -11 -86 -23 -111 -26 -44 -6 -46 -5
-59 27 -22 51 -106 146 -166 186 -30 20 -54 38 -54 41 0 2 20 1 44 -2 60 -9
201 10 294 39 488 155 1064 800 1268 1422 53 163 67 257 61 413 -8 198 -35
307 -123 486 -67 138 -164 267 -347 462 -185 198 -263 297 -312 397 -113 229
-38 503 197 721 87 80 174 143 379 272 196 125 282 203 328 301 23 51 26 68
26 176 0 116 -1 123 -34 193 -58 124 -191 229 -338 267 -78 21 -256 18 -363
-4z m5244 -1603 c88 -26 189 -168 250 -352 120 -362 129 -1013 20 -1464 -65
-267 -164 -433 -277 -467 -65 -19 -92 -19 -153 2 -92 31 -185 150 -247 318
-88 234 -130 524 -131 890 0 361 42 620 136 822 51 111 142 218 212 249 39 17
136 18 190 2z m1390 -3576 c-21 -5 -28 4 -20 24 6 16 8 15 21 -2 12 -16 12
-19 -1 -22z m-1459 -92 c87 -34 168 -117 184 -188 16 -77 14 -102 -14 -158
-32 -64 -83 -106 -225 -184 -166 -92 -214 -124 -284 -193 -89 -87 -120 -151
-121 -247 0 -117 18 -145 220 -345 233 -230 299 -332 326 -508 24 -155 -21
-314 -147 -517 -139 -225 -351 -427 -567 -541 -133 -69 -225 -92 -351 -87
-122 5 -186 30 -245 93 -70 76 -79 186 -24 286 40 74 148 186 288 299 251 203
318 310 280 455 -20 76 -67 145 -251 365 -238 285 -286 370 -287 510 -1 104
16 167 78 295 160 327 499 605 830 679 97 22 232 15 310 -14z m-9420 -31 c105
-28 146 -108 120 -231 -44 -202 -327 -400 -845 -590 -74 -27 -138 -53 -141
-56 -4 -4 -10 -76 -13 -161 -7 -146 -6 -153 11 -146 67 29 312 109 378 125
170 39 306 36 402 -11 63 -30 87 -70 91 -150 7 -114 -42 -195 -181 -300 -127
-96 -373 -206 -623 -279 l-71 -21 -6 -222 c-11 -365 -41 -545 -110 -653 -70
-112 -186 -153 -287 -101 -158 79 -280 492 -298 1012 -14 372 9 995 44 1215
26 166 60 208 239 298 175 87 437 168 765 237 257 53 413 63 525 34z m3037
-11 c30 -13 68 -42 98 -75 111 -121 102 -281 -22 -369 -114 -82 -396 -205
-853 -370 l-79 -29 -28 -130 c-25 -121 -34 -205 -23 -205 2 0 37 13 77 29 116
45 287 99 361 111 37 7 116 11 175 8 98 -3 112 -6 162 -34 45 -25 60 -42 84
-87 56 -110 34 -230 -59 -316 -82 -76 -306 -175 -606 -267 l-189 -59 -11 -40
c-7 -24 -9 -82 -6 -145 7 -127 14 -154 36 -145 9 4 113 34 231 67 458 128 564
142 675 89 138 -65 201 -220 141 -346 -13 -27 -36 -62 -52 -76 -104 -96 -417
-244 -749 -354 -323 -108 -393 -114 -576 -52 -196 67 -335 170 -363 268 -30
104 -57 375 -76 759 -28 550 49 1094 191 1360 57 106 102 156 167 189 164 82
571 176 1047 240 93 13 188 5 247 -21z m9559 -55 c131 -38 201 -100 215 -190
19 -123 -58 -222 -256 -327 -90 -47 -266 -111 -387 -141 -40 -9 -73 -22 -73
-29 0 -6 -5 -49 -10 -96 -50 -435 -67 -879 -52 -1292 16 -399 7 -478 -63 -619
-23 -44 -82 -106 -124 -128 -73 -40 -209 -30 -285 20 -84 56 -147 181 -166
333 -14 108 -31 976 -28 1386 l3 355 -70 -5 c-306 -22 -559 36 -626 143 -25
40 -21 115 10 175 99 194 552 347 1251 422 234 25 562 22 661 -7z m-6714 -13
c246 -32 439 -204 566 -507 67 -158 109 -307 177 -625 110 -514 141 -730 142
-1002 1 -191 -14 -283 -62 -399 -63 -152 -154 -226 -285 -235 -245 -16 -368
162 -404 583 -6 66 -11 148 -11 182 0 34 -4 64 -8 67 -5 3 -108 -8 -228 -24
-120 -16 -250 -33 -289 -37 l-69 -8 -22 -115 c-74 -383 -229 -601 -441 -618
-144 -11 -235 73 -290 269 -25 91 -25 466 0 623 25 157 102 497 152 671 77
271 205 570 318 746 157 245 366 401 574 428 93 12 98 12 180 1z m-7636 -348
c14 -6 14 -13 1 -69 l-15 -61 -54 -7 c-54 -7 -112 10 -128 35 -3 6 -15 10 -26
10 -10 0 -19 7 -19 15 0 8 6 15 14 15 7 0 24 9 37 19 14 10 56 26 94 34 84 18
76 17 96 9z m9419 -26 c0 -11 -19 -15 -25 -6 -3 5 1 10 9 10 9 0 16 -2 16 -4z
m-9675 -54 c-8 -8 -25 10 -19 20 4 6 9 5 15 -3 4 -7 6 -15 4 -17z m9744 -22
c25 -13 16 -52 -15 -67 -19 -9 -24 -8 -24 3 0 8 -6 14 -12 14 -9 0 -8 4 2 10
8 5 16 15 16 22 4 33 5 34 33 18z m-19 -100 c0 -5 -4 -10 -10 -10 -5 0 -10 5
-10 10 0 6 5 10 10 10 6 0 10 -4 10 -10z m133 -116 c9 -4 17 -15 17 -25 0 -10
12 -26 28 -34 15 -9 19 -14 9 -11 -10 3 -32 6 -48 6 -19 0 -29 5 -29 15 0 8
-6 15 -14 15 -9 0 -12 8 -8 25 2 15 9 23 16 20 6 -3 19 -8 29 -11z m121 -63
c4 -5 -3 -7 -14 -4 -23 6 -26 13 -6 13 8 0 17 -4 20 -9z m-6764 -41 c0 -5 -7
-10 -15 -10 -8 0 -15 5 -15 10 0 6 7 10 15 10 8 0 15 -4 15 -10z m3130 -172
c47 -10 117 -24 155 -30 39 -6 72 -14 75 -18 3 -4 16 -7 30 -6 17 1 24 -4 22
-14 -2 -8 -30 -119 -63 -247 -93 -368 -133 -601 -145 -843 -25 -507 142 -806
465 -836 304 -28 567 191 689 576 16 52 33 114 37 136 l6 42 57 6 c31 4 71 9
89 12 l31 6 6 -59 c33 -313 103 -494 245 -625 54 -51 184 -118 226 -118 31 0
13 -17 -77 -74 -51 -32 -114 -72 -140 -89 -77 -52 -590 -388 -753 -493 -82
-53 -168 -109 -190 -124 -119 -80 -550 -333 -760 -445 -49 -26 -123 -68 -163
-92 -40 -24 -96 -55 -125 -68 -28 -14 -83 -43 -120 -66 -38 -22 -75 -38 -83
-35 -7 3 -28 25 -46 49 -18 25 -69 91 -114 148 -150 193 -214 280 -214 288 0
5 -3 11 -7 13 -5 2 -21 21 -38 43 -16 22 -33 45 -38 50 -5 6 -51 70 -102 143
-91 129 -201 335 -294 547 -21 50 -47 106 -56 125 -10 19 -43 93 -74 165 l-57
129 163 83 c272 136 379 220 433 335 59 127 57 248 -6 374 -84 168 -271 283
-464 284 l-55 1 75 39 c93 49 169 115 219 189 52 77 62 111 70 224 l6 99 50
18 c28 10 145 62 260 115 116 54 234 108 263 120 l53 22 187 -39 c103 -22 225
-49 272 -60z m6804 -97 c6 -8 8 -331 3 -411 l-2 -35 -65 -8 c-337 -42 -928
-135 -1185 -186 -155 -31 -150 -32 -165 42 -28 131 -148 332 -270 453 -39 38
-70 72 -70 75 0 3 134 9 298 12 163 3 349 9 412 12 63 4 187 8 275 10 88 1
239 8 335 14 96 7 222 14 279 16 57 3 106 7 109 10 9 8 40 6 46 -4z m-3533
-47 l425 -6 29 -52 c39 -69 143 -206 266 -351 56 -66 119 -143 140 -170 35
-47 69 -112 69 -134 0 -20 -99 -127 -176 -191 -58 -48 -95 -70 -130 -79 -27
-7 -79 -24 -115 -37 -36 -13 -97 -33 -135 -44 -96 -28 -274 -95 -372 -141 -46
-21 -86 -39 -89 -39 -2 0 -65 -29 -140 -65 -75 -36 -137 -65 -139 -65 -2 0
-72 -34 -155 -75 -84 -42 -154 -73 -157 -71 -2 3 3 24 12 46 15 38 24 83 46
240 29 205 -7 577 -100 1029 -22 107 -40 201 -40 209 0 12 25 13 168 8 92 -3
359 -9 593 -12z m6461 -269 c-1 -22 -5 -56 -8 -75 -4 -27 1 -44 20 -72 13 -20
26 -44 28 -55 2 -10 14 -19 28 -21 30 -5 49 -29 50 -64 0 -29 -43 -117 -63
-130 -16 -10 -168 -8 -188 3 -31 16 -52 64 -63 143 -12 78 -13 81 -41 86 -47
10 -74 29 -81 55 -8 34 9 52 57 60 21 4 45 15 52 24 19 27 33 32 61 21 34 -13
56 -3 56 24 0 32 20 47 60 44 34 -3 35 -4 32 -43z m-973 -102 c7 -14 22 -17
73 -16 34 1 73 8 85 14 19 10 26 9 43 -6 18 -16 27 -17 107 -5 134 19 137 19
141 -8 2 -14 18 -32 39 -44 39 -24 53 -51 59 -123 4 -52 31 -125 46 -125 13 0
10 -26 -5 -38 -14 -12 -46 5 -81 41 -17 16 -19 16 -48 -13 -16 -16 -40 -33
-54 -36 -23 -6 -33 -4 -64 15 -30 18 -76 34 -100 35 -19 1 -34 14 -60 54 -19
29 -42 52 -51 52 -10 0 -21 10 -24 23 -9 29 -45 67 -63 67 -8 0 -25 11 -38 25
-15 16 -34 25 -54 25 -26 0 -30 3 -30 28 0 15 5 33 12 40 18 18 56 15 67 -5z
m-193 -37 c11 -43 -8 -61 -63 -57 -51 3 -86 25 -81 50 3 17 40 28 100 30 32 1
39 -3 44 -23z m-48 -164 c7 -76 -70 -152 -154 -152 -60 0 -74 12 -74 61 0 46
11 55 35 29 10 -11 28 -20 41 -20 30 0 80 43 100 86 21 44 48 42 52 -4z m966
-141 c3 -5 26 -12 51 -15 55 -9 85 -45 85 -103 0 -46 -40 -110 -73 -118 -67
-17 -133 -22 -166 -13 -20 6 -66 8 -103 4 -86 -8 -102 5 -96 75 6 59 61 140
93 136 31 -3 29 -33 -3 -74 -32 -40 -49 -83 -34 -83 5 0 23 5 40 11 24 8 43 7
86 -5 30 -9 70 -16 89 -16 41 0 87 33 87 62 0 22 -43 68 -63 68 -21 0 -89 52
-80 60 7 7 35 15 70 19 6 0 14 -3 17 -8z m-2834 -28 c47 -3 93 -10 103 -15 12
-6 17 -5 17 7 0 9 9 15 25 15 25 0 25 -1 25 -89 0 -48 -5 -102 -11 -120 -9
-27 -16 -31 -45 -31 -30 0 -37 5 -50 35 -7 19 -14 44 -14 55 0 12 -7 20 -17
20 -10 0 -27 7 -37 15 -11 8 -30 15 -42 15 -12 0 -27 7 -34 15 -7 8 -22 15
-33 15 -23 0 -57 27 -57 45 0 23 25 36 55 30 17 -3 68 -9 115 -12z m1374 -79
c9 -8 16 -25 16 -37 1 -27 43 -77 65 -77 9 0 18 -6 21 -13 3 -8 17 -11 39 -9
32 4 37 1 66 -47 l32 -52 21 45 c13 27 36 55 60 71 35 24 45 26 90 19 28 -4
59 -6 69 -5 10 1 27 -5 37 -14 15 -14 21 -14 38 -4 17 11 25 11 46 0 14 -8 27
-20 30 -28 8 -19 -14 -62 -35 -68 -10 -4 -39 -27 -64 -51 -24 -25 -53 -44 -62
-43 -38 5 -73 -13 -79 -40 -10 -46 -14 -53 -26 -49 -12 4 -23 21 -32 51 -3 10
-15 17 -32 17 -16 0 -34 9 -45 24 -18 23 -20 23 -51 9 -31 -14 -33 -18 -30
-55 5 -44 -6 -58 -47 -58 -22 0 -23 3 -18 38 3 20 9 52 12 70 l8 32 -67 0
c-44 0 -75 5 -91 16 -18 12 -28 13 -44 5 -16 -9 -21 -8 -25 7 -4 16 -11 220
-7 250 2 18 86 16 105 -4z m780 -111 c4 -4 22 -6 41 -5 18 2 36 -1 40 -7 3 -6
17 -8 31 -5 23 6 24 4 18 -27 -9 -44 -20 -57 -62 -75 -48 -20 -66 -18 -100 11
-17 14 -41 25 -54 25 -30 0 -37 6 -31 28 10 36 96 76 117 55z m1446 -98 c14
-8 35 -14 48 -15 25 0 35 -20 47 -87 6 -38 4 -45 -22 -68 -93 -87 -111 -96
-149 -80 -32 13 -60 42 -51 52 4 3 2 12 -4 19 -6 7 -7 32 -3 63 5 38 11 52 26
57 11 3 26 21 34 40 16 37 34 42 74 19z m-4482 -125 c40 -25 71 -89 72 -148 0
-39 -2 -43 -22 -40 -12 2 -28 14 -34 26 -22 45 -33 47 -27 6 6 -47 -10 -71
-53 -80 -27 -5 -33 -3 -39 16 -4 14 -1 28 10 40 16 17 16 21 1 42 -9 12 -16
30 -16 39 0 9 -7 19 -15 23 -25 9 -17 42 16 70 37 31 63 33 107 6z m2855 -47
c7 -11 12 -12 23 -2 33 27 80 -23 98 -103 3 -15 15 -30 26 -33 24 -8 25 -18 5
-39 -8 -8 -15 -22 -15 -32 0 -23 -38 -82 -61 -94 -20 -11 -74 9 -81 31 -2 6
-32 13 -67 16 -45 4 -64 11 -69 22 -3 9 -17 31 -31 49 -22 30 -23 37 -12 67 6
18 9 45 5 59 -5 19 1 31 26 56 30 30 34 31 88 24 32 -4 61 -13 65 -21z m642
-37 c11 -7 33 -16 48 -20 15 -4 35 -15 45 -26 9 -11 23 -20 32 -20 8 0 45 -29
83 -65 67 -65 67 -65 67 -119 0 -75 -13 -106 -44 -106 -16 0 -27 7 -31 19 -4
13 -17 21 -38 23 -24 2 -33 8 -35 26 -2 12 -10 22 -18 22 -23 0 -94 61 -94 81
0 22 -38 35 -53 20 -7 -7 -16 -28 -22 -49 -8 -27 -20 -41 -49 -56 l-38 -21 28
-12 c16 -7 40 -12 54 -13 14 0 31 -9 38 -21 7 -11 33 -29 58 -39 46 -20 66
-46 45 -60 -7 -4 -47 -10 -89 -13 -72 -6 -82 -4 -144 25 -51 24 -68 37 -68 51
0 11 -7 28 -16 38 -15 16 -14 19 12 32 l27 14 -33 17 c-18 9 -43 16 -56 16
-35 0 -39 19 -11 48 14 15 30 39 36 55 7 18 18 27 33 27 24 0 88 56 88 77 0 7
12 24 27 38 31 28 86 34 118 11z m-18068 -29 c10 -13 26 -26 35 -30 9 -3 26
-24 37 -45 13 -26 31 -44 53 -52 18 -7 56 -24 85 -37 28 -13 75 -26 103 -30
28 -3 49 -9 48 -12 -28 -59 -61 -113 -71 -116 -7 -2 -44 -5 -83 -7 -69 -3 -72
-3 -87 24 -9 16 -36 41 -61 56 -55 34 -64 48 -93 147 -13 44 -27 87 -29 97 -5
14 4 21 38 27 4 0 15 -9 25 -22z m15084 13 c28 -15 25 -61 -6 -90 -14 -13 -25
-31 -25 -41 0 -9 -7 -22 -15 -29 -8 -7 -15 -20 -15 -30 0 -23 -36 -54 -54 -47
-8 3 -18 26 -21 51 -21 135 50 231 136 186z m544 1 c3 -5 1 -12 -5 -16 -5 -3
-10 1 -10 9 0 18 6 21 15 7z m-14231 -26 c6 -17 -8 -24 -84 -44 -63 -17 -82
-18 -87 -4 -5 14 39 36 102 51 58 14 62 14 69 -3z m12680 1 c56 -19 73 -59 42
-101 -13 -17 -17 -18 -40 -6 -37 20 -96 1 -118 -39 -20 -35 -44 -48 -60 -32
-9 9 -7 16 5 30 9 10 17 23 17 28 0 19 72 115 93 124 12 5 22 9 22 9 0 0 17
-5 39 -13z m4593 -18 c40 -43 53 -69 53 -111 0 -48 -28 -125 -53 -142 -26 -18
-43 -5 -28 23 6 11 11 48 13 82 2 59 1 64 -30 91 -18 16 -43 29 -57 29 -24 0
-33 -7 -59 -44 -7 -11 -18 -16 -24 -12 -20 12 -14 68 10 93 18 19 32 23 83 23
56 0 64 -3 92 -32z m-13156 -96 c13 -13 59 -139 59 -160 0 -38 -24 -24 -48 27
-12 27 -22 52 -22 57 0 13 -43 54 -56 54 -17 0 -27 17 -18 31 6 11 73 4 85 -9z
m8777 -58 c24 -17 29 -43 11 -61 -8 -8 -11 -48 -10 -114 1 -92 -1 -105 -23
-144 -29 -49 -86 -102 -120 -111 -12 -3 -40 -4 -62 -2 -38 3 -39 4 -45 45 -3
23 -13 51 -22 61 -25 27 -23 100 4 128 l20 21 -61 19 c-63 19 -97 45 -85 64 5
8 19 9 39 5 17 -4 64 -12 105 -19 99 -15 107 -28 58 -99 l-38 -55 25 -26 c15
-14 26 -34 26 -46 0 -22 12 -25 41 -10 36 20 52 70 60 189 7 100 6 116 -8 126
-47 34 37 63 85 29z m1265 -63 c4 -4 12 -58 18 -120 9 -103 9 -115 -8 -133
-11 -13 -26 -18 -42 -15 -17 4 -35 -3 -54 -19 -16 -13 -39 -24 -52 -24 -13 0
-27 -4 -30 -10 -11 -18 -26 -10 -39 22 -13 30 -14 31 -25 10 -7 -13 -17 -19
-26 -16 -8 4 -15 1 -15 -4 0 -18 -30 -42 -52 -42 -19 0 -19 4 -13 59 6 55 5
60 -15 66 -27 9 -22 39 7 43 13 2 25 14 32 33 6 17 20 33 32 36 16 5 19 11 14
30 -7 31 20 43 40 17 10 -14 17 -16 25 -8 7 7 30 9 56 6 43 -5 45 -4 39 19 -6
27 1 41 30 57 19 11 62 7 78 -7z m-11547 -25 c6 -15 -21 -103 -38 -123 -14
-17 -79 -17 -103 1 -16 12 -17 16 -6 30 7 9 22 16 32 16 11 0 25 13 35 33 9
17 21 38 26 45 14 16 47 15 54 -2z m12910 -52 c30 -33 54 -62 54 -65 0 -3 11
-11 24 -17 18 -8 26 -20 28 -44 3 -28 6 -33 26 -30 14 2 41 -8 64 -25 26 -17
55 -28 77 -28 122 -2 131 -4 162 -37 16 -18 29 -40 29 -50 0 -18 -35 -43 -48
-34 -4 2 -77 7 -162 10 -84 4 -156 9 -159 11 -2 3 -10 0 -16 -5 -18 -15 -62 4
-70 29 -10 33 -47 26 -65 -12 -21 -45 -38 -42 -114 25 -25 21 -31 33 -30 66 1
30 -3 41 -16 45 -13 3 -19 20 -25 71 -8 76 8 116 48 116 12 0 28 10 35 21 12
18 20 21 59 16 40 -4 52 -12 99 -63z m-14097 -70 c11 -10 -12 -15 -97 -20 -89
-5 -112 1 -96 27 5 8 34 9 98 4 50 -4 93 -9 95 -11z m15575 -71 c3 -25 6 -67
6 -93 0 -40 -3 -48 -25 -58 -14 -6 -25 -18 -25 -27 0 -8 -7 -15 -15 -15 -10 0
-15 10 -15 28 0 51 -35 67 -71 31 -18 -18 -24 -19 -54 -9 -19 6 -40 8 -47 3
-7 -4 -42 -9 -78 -10 -36 -1 -89 -5 -118 -8 -35 -5 -57 -3 -67 5 -32 26 -15
38 80 55 102 18 155 38 155 59 0 30 44 53 102 54 32 1 60 -3 64 -9 4 -6 9 -7
13 -2 15 21 63 51 75 47 8 -3 16 -26 20 -51z m-6187 -4 c6 -6 37 -16 69 -22
33 -7 59 -16 59 -22 0 -14 -120 -18 -145 -5 -12 6 -20 21 -20 35 0 26 18 33
37 14z m1364 -71 c-6 -25 -21 -52 -36 -65 -48 -42 -145 -41 -153 1 -5 26 17
38 56 31 30 -6 34 -3 43 25 14 40 80 87 91 65 5 -7 4 -33 -1 -57z m1334 -8 c0
-20 -13 -31 -85 -69 -83 -44 -87 -45 -195 -48 -125 -4 -160 6 -160 47 0 37 73
60 216 69 63 5 124 13 135 19 10 7 35 11 54 9 30 -2 35 -6 35 -27z m200 -84
c11 -8 16 -19 12 -30 -5 -12 -20 -16 -63 -16 -63 0 -98 -19 -127 -69 -16 -27
-16 -31 -3 -31 20 0 20 1 -8 -64 -27 -61 -47 -76 -105 -76 -31 0 -44 6 -61 27
-12 15 -20 38 -18 52 2 21 11 28 51 39 26 7 47 17 47 21 0 20 77 106 118 132
51 32 124 39 157 15z m-9422 -10 c3 -8 9 -43 13 -78 10 -97 24 -123 83 -150
28 -12 51 -26 51 -30 0 -5 -22 -8 -50 -8 -41 0 -56 5 -82 29 -30 26 -32 34
-38 112 -3 46 -11 94 -17 105 -7 12 -9 24 -6 28 12 11 41 6 46 -8z m9895 -28
c-8 -64 -49 -158 -80 -181 -15 -11 -49 -22 -79 -25 -65 -6 -112 16 -129 62 -7
17 -17 41 -23 53 -12 27 5 53 36 53 25 0 116 -60 117 -77 0 -7 -12 -13 -26
-13 -14 0 -23 -4 -19 -10 3 -5 22 -10 41 -10 48 0 80 36 94 108 16 81 17 82
46 82 25 0 26 -2 22 -42z m-1324 -76 c7 -62 2 -86 -22 -114 -32 -37 -100 -14
-151 51 -54 68 -35 88 37 36 72 -51 92 -45 92 29 0 29 15 56 31 56 3 0 9 -26
13 -58z m2127 -49 c37 -16 55 -46 41 -67 -4 -6 -11 -29 -17 -51 -8 -33 -14
-40 -35 -40 -20 0 -26 6 -28 28 -2 15 -7 27 -12 27 -16 0 -50 -77 -50 -113 0
-43 -33 -77 -58 -60 -9 6 -16 18 -14 28 2 9 -6 28 -18 40 -22 23 -22 26 -9
110 7 47 17 89 23 93 12 7 76 19 115 21 13 0 41 -6 62 -16z m-666 -46 c27 -41
29 -80 5 -110 -19 -24 -28 -27 -80 -27 -58 0 -85 14 -59 31 8 5 30 9 50 9 39
0 53 11 62 50 5 17 0 31 -15 47 l-21 23 21 0 c12 0 28 -10 37 -23z m1434 -79
c28 -29 54 -64 58 -78 3 -14 11 -28 16 -32 7 -4 7 -16 -1 -35 -6 -15 -13 -40
-16 -55 -3 -15 -15 -30 -26 -33 -11 -3 -25 -15 -30 -26 -15 -27 -91 -26 -136
2 -40 24 -43 36 -11 48 72 28 108 46 117 57 14 16 -24 90 -50 97 -24 6 -26 30
-5 51 9 8 15 19 14 23 -8 47 11 42 70 -19z m-11445 -294 c16 -16 21 -36 10
-46 -3 -4 -14 2 -25 13 -27 27 -47 24 -85 -17 l-34 -35 0 26 c0 59 93 100 134
59z m4342 -1910 c-22 -16 -36 -18 -36 -6 0 11 43 32 50 25 3 -3 -4 -11 -14
-19z m54 -34 c0 -5 -2 -10 -4 -10 -3 0 -8 5 -11 10 -3 6 -1 10 4 10 6 0 11 -4
11 -10z m-30 -13 c0 -22 -37 -50 -57 -43 -15 6 -13 10 12 31 34 28 45 31 45
12z m-50 -82 c0 -8 -7 -15 -16 -15 -14 0 -14 3 -4 15 7 8 14 15 16 15 2 0 4
-7 4 -15z m-9 -43 c-7 -2 -18 1 -23 6 -8 8 -4 9 13 5 13 -4 18 -8 10 -11z
m-14 -28 c-3 -3 -12 -4 -19 -1 -8 3 -5 6 6 6 11 1 17 -2 13 -5z m-217 -835 c0
-6 -4 -7 -10 -4 -5 3 -10 11 -10 16 0 6 5 7 10 4 6 -3 10 -11 10 -16z m6608
-606 c-10 -2 -26 -2 -35 0 -10 3 -2 5 17 5 19 0 27 -2 18 -5z m-1109 -32 c-15
-5 -22 6 -14 19 6 9 10 9 16 -1 5 -8 4 -15 -2 -18z m-2389 -121 c0 -5 -4 -10
-9 -10 -6 0 -13 5 -16 10 -3 6 1 10 9 10 9 0 16 -4 16 -10z m1280 -10 c0 -5
-5 -10 -11 -10 -5 0 -7 5 -4 10 3 6 8 10 11 10 2 0 4 -4 4 -10z m3545 -80 c-3
-5 -11 -10 -16 -10 -6 0 -7 5 -4 10 3 6 11 10 16 10 6 0 7 -4 4 -10z m-87 -12
c-3 -7 -11 -13 -18 -13 -7 0 -15 6 -17 13 -3 7 4 12 17 12 13 0 20 -5 18 -12z
m-158 -23 c-7 -9 -15 -13 -17 -11 -6 6 20 36 26 30 2 -2 -2 -10 -9 -19z m62
13 c-9 -9 -15 -9 -24 0 -9 9 -7 12 12 12 19 0 21 -3 12 -12z"/>
<path d="M11539 8815 c-35 -19 -82 -93 -114 -180 -52 -138 -137 -548 -117
-566 7 -6 185 9 377 34 l100 12 3 120 c5 198 -25 374 -82 487 -46 91 -109 126
-167 93z"/>
<path d="M4040 9141 c0 -6 5 -13 10 -16 6 -3 10 1 10 9 0 9 -4 16 -10 16 -5 0
-10 -4 -10 -9z"/>
<path d="M3930 9050 c0 -5 5 -10 10 -10 6 0 10 5 10 10 0 6 -4 10 -10 10 -5 0
-10 -4 -10 -10z"/>
<path d="M16224 6325 c-10 -8 -29 -15 -42 -15 -35 0 -21 -24 15 -28 23 -2 35
3 47 20 27 38 17 51 -20 23z"/>
<path d="M16265 14870 c-47 -8 -31 -12 40 -10 28 1 54 6 60 11 10 10 -39 10
-100 -1z"/>
<path d="M3990 14833 c-219 -18 -714 -137 -1065 -256 -235 -81 -495 -197 -631
-285 -109 -70 -195 -160 -222 -235 -58 -154 -92 -546 -112 -1282 -12 -453 -12
-1000 0 -1190 27 -409 86 -812 156 -1065 82 -292 209 -503 330 -544 140 -47
274 11 370 160 125 195 162 426 186 1169 l12 371 95 33 c517 179 824 350 1046
582 140 147 181 247 173 428 -5 123 -36 187 -113 236 -210 134 -598 85 -1090
-137 -138 -62 -150 -66 -142 -45 3 9 12 133 18 275 l12 258 211 88 c567 238
879 433 1107 692 186 212 245 505 128 639 -77 87 -244 126 -469 108z"/>
<path d="M5495 14753 c-154 -55 -280 -187 -394 -413 -100 -197 -157 -376 -219
-690 -78 -394 -109 -635 -138 -1100 -25 -397 -7 -646 72 -1000 130 -583 417
-1061 819 -1362 306 -230 630 -330 1028 -315 228 8 395 47 576 135 508 246
797 814 883 1732 20 213 17 762 -6 945 -40 332 -97 611 -192 933 -120 407
-251 679 -410 851 -132 143 -248 198 -396 188 -170 -11 -294 -124 -343 -314
-33 -126 -16 -270 68 -589 154 -576 216 -948 237 -1399 29 -609 -57 -1029
-253 -1241 -106 -114 -222 -154 -386 -133 -135 17 -223 77 -313 217 -149 227
-208 515 -208 1008 0 371 41 729 141 1244 52 261 60 320 66 470 12 313 -75
590 -234 741 -88 85 -128 102 -248 106 -78 3 -111 0 -150 -14z"/>
<path d="M18155 14726 c-181 -58 -346 -267 -480 -609 -177 -454 -319 -1301
-356 -2127 -31 -689 49 -1320 211 -1655 100 -209 208 -306 366 -330 54 -8 201
18 254 45 63 32 134 109 173 186 81 161 115 319 168 779 27 238 32 320 39 695
5 234 9 452 10 485 1 44 4 55 10 40 5 -11 63 -155 129 -320 192 -483 406 -988
492 -1162 205 -415 459 -693 712 -778 121 -40 278 -35 372 12 138 70 280 257
383 505 157 378 268 957 324 1698 16 214 16 855 0 1025 -72 753 -198 1167
-420 1380 -59 57 -112 83 -197 97 -163 27 -291 -58 -394 -262 -68 -134 -107
-274 -140 -501 -44 -304 -46 -348 -45 -1214 l2 -830 -20 45 c-11 25 -93 266
-183 535 -152 455 -313 916 -457 1300 -104 279 -229 516 -357 678 -175 220
-302 298 -480 296 -42 0 -94 -6 -116 -13z"/>
<path d="M12320 14664 c-19 -2 -84 -9 -145 -15 -446 -44 -813 -174 -1018 -358
-86 -78 -137 -192 -137 -309 0 -102 15 -138 90 -212 70 -71 154 -117 256 -144
80 -21 245 -34 322 -27 l62 7 0 -81 c0 -123 -48 -1423 -59 -1596 -19 -292
-108 -1112 -123 -1124 -2 -1 -34 -12 -73 -24 -38 -12 -116 -45 -173 -72 -88
-43 -116 -62 -187 -133 -101 -102 -159 -208 -175 -323 -18 -134 8 -209 95
-275 110 -84 236 -110 525 -111 481 -1 1010 101 1316 256 137 69 258 183 299
281 24 56 34 150 25 216 -12 82 -44 145 -105 207 -90 90 -209 135 -389 149
l-88 7 6 41 c15 103 58 517 81 771 42 470 67 912 88 1574 l12 354 100 32 c129
42 184 67 271 126 149 100 224 233 224 394 0 75 -34 150 -90 198 -83 71 -268
144 -435 173 -86 15 -490 28 -575 18z"/>
<path d="M13858 14353 c6 -2 18 -2 25 0 6 3 1 5 -13 5 -14 0 -19 -2 -12 -5z"/>
<path d="M13745 14328 c-16 -6 -36 -12 -42 -14 -7 -2 -13 -8 -13 -14 0 -12 31
-6 98 21 42 16 44 18 17 17 -16 0 -43 -5 -60 -10z"/>
<path d="M16506 9695 c4 -8 10 -15 15 -15 5 0 9 7 9 15 0 8 -7 15 -15 15 -9 0
-12 -6 -9 -15z"/>
<path d="M16427 9683 c-14 -13 -6 -23 18 -23 18 0 23 4 19 15 -6 16 -26 20
-37 8z"/>
<path d="M16390 9650 c0 -5 5 -10 10 -10 6 0 10 5 10 10 0 6 -4 10 -10 10 -5
0 -10 -4 -10 -10z"/>
<path d="M16310 9630 c0 -5 5 -10 10 -10 6 0 10 5 10 10 0 6 -4 10 -10 10 -5
0 -10 -4 -10 -10z"/>
<path d="M16338 9589 c-19 -11 -24 -34 -9 -44 11 -6 34 31 29 45 -2 5 -11 4
-20 -1z"/>
<path d="M13575 9260 c3 -5 11 -10 16 -10 6 0 7 5 4 10 -3 6 -11 10 -16 10 -6
0 -7 -4 -4 -10z"/>
<path d="M13655 9050 c-3 -5 -1 -10 4 -10 6 0 11 5 11 10 0 6 -2 10 -4 10 -3
0 -8 -4 -11 -10z"/>
<path d="M13748 8943 c7 -3 16 -2 19 1 4 3 -2 6 -13 5 -11 0 -14 -3 -6 -6z"/>
<path d="M15005 5880 c-10 -11 -28 -20 -39 -20 -34 -1 -96 -67 -96 -103 0 -8
-6 -20 -14 -26 -8 -7 -17 -28 -21 -47 -5 -29 -1 -42 18 -67 78 -103 91 -224
25 -240 -33 -9 -56 -51 -38 -72 7 -8 18 -15 24 -15 6 -1 22 -9 34 -20 l24 -20
-21 -27 c-23 -28 -20 -37 21 -57 13 -6 24 -22 26 -36 4 -33 32 -100 51 -124
10 -12 16 -38 16 -74 0 -48 3 -58 22 -68 13 -6 32 -19 42 -28 21 -19 31 -16
69 17 l22 21 39 -22 c24 -14 56 -22 84 -22 43 0 47 3 82 50 20 28 43 50 50 50
8 0 16 9 20 19 3 11 13 22 21 25 12 5 13 10 3 28 -7 13 -13 55 -13 94 -1 74
15 113 56 142 11 8 18 23 16 35 -3 19 -10 22 -59 23 -56 1 -56 1 -88 -47 -61
-88 -95 -119 -133 -119 -26 0 -38 -6 -47 -22 -11 -21 -109 -93 -116 -86 -2 2
-12 30 -23 63 l-19 60 38 45 c46 55 59 96 32 104 -11 4 -19 16 -20 33 -6 98
-9 121 -19 134 -6 8 -14 23 -18 34 -3 11 -16 25 -28 30 -20 9 -24 20 -31 92
-8 81 -8 84 22 126 16 24 46 56 65 71 56 43 44 86 -24 86 -24 0 -43 -7 -55
-20z"/>
<path d="M815 5686 c-37 -27 -16 -160 45 -280 17 -32 30 -69 30 -81 0 -37 30
-112 54 -134 13 -13 43 -28 67 -35 l44 -13 18 -99 c10 -54 18 -106 18 -114 0
-8 -1 -46 -1 -85 -1 -38 3 -82 8 -97 10 -25 8 -29 -38 -57 -44 -27 -50 -35
-50 -64 0 -18 6 -39 12 -45 7 -7 13 -27 14 -45 3 -65 25 -127 51 -145 14 -9
49 -38 77 -63 68 -61 145 -102 235 -128 44 -12 85 -31 101 -46 14 -14 32 -25
39 -25 7 0 32 -19 54 -42 49 -50 108 -84 130 -75 14 5 13 13 -9 63 -13 31 -31
62 -38 70 -11 10 -11 22 -3 53 10 37 9 43 -12 65 -13 14 -38 28 -55 32 -61 13
-145 64 -223 135 -43 40 -82 76 -87 80 -6 5 0 25 14 51 19 33 24 59 26 124 1
45 7 91 13 102 6 11 11 47 11 78 0 54 3 61 40 99 32 32 42 52 52 100 6 33 20
71 30 84 26 33 22 63 -10 94 -25 24 -36 27 -98 27 -48 1 -86 7 -124 23 -47 19
-59 30 -87 77 -59 101 -61 103 -108 97 l-43 -4 -6 39 c-9 52 -46 125 -86 166
-35 35 -73 42 -105 18z"/>
<path d="M13872 5641 l-21 -29 19 -41 c11 -22 20 -51 20 -65 0 -58 105 -155
150 -141 10 3 35 -1 55 -9 62 -26 185 -2 185 37 0 15 -163 170 -196 186 -83
39 -94 47 -94 58 0 17 -33 33 -67 33 -21 0 -36 -9 -51 -29z"/>
<path d="M2328 5541 c-29 -23 -78 -27 -110 -10 -18 10 -24 8 -38 -9 -11 -13
-35 -23 -66 -27 -83 -13 -151 -59 -158 -110 -1 -7 -8 -20 -14 -28 -11 -12 -10
-18 3 -29 35 -28 52 -45 66 -64 8 -12 37 -32 64 -46 45 -22 50 -28 53 -61 4
-44 36 -72 92 -82 22 -4 40 -10 40 -15 0 -4 20 -30 44 -57 35 -39 46 -59 51
-98 9 -60 23 -96 58 -150 61 -93 85 -117 158 -165 46 -30 114 -89 167 -145 49
-52 97 -95 106 -95 12 0 16 10 16 36 0 67 -22 116 -73 165 l-48 46 13 46 c15
57 14 58 -89 112 -42 22 -81 49 -87 60 -5 11 -18 32 -27 46 -9 14 -31 59 -48
101 -17 41 -43 90 -56 108 -16 22 -25 47 -25 72 0 51 -32 73 -96 65 -48 -5
-58 11 -13 24 52 14 113 54 119 78 3 16 17 27 39 35 19 6 43 23 55 39 l20 27
-22 45 c-39 81 -142 127 -194 86z"/>
<path d="M1745 5330 c-3 -5 -17 -10 -29 -10 -35 0 -49 -23 -41 -67 10 -59 8
-99 -8 -135 -17 -38 -57 -168 -57 -184 0 -6 -9 -19 -20 -29 -22 -20 -26 -55
-9 -86 8 -16 7 -26 -5 -44 -22 -33 -20 -72 4 -102 16 -21 20 -41 20 -108 0
-79 2 -85 38 -141 21 -33 46 -71 55 -86 10 -16 25 -28 34 -28 16 0 102 -26
192 -57 60 -22 182 -143 198 -198 24 -79 22 -104 -7 -125 -15 -11 -54 -22 -86
-26 -70 -8 -84 -17 -84 -55 0 -37 14 -44 83 -42 31 1 59 -3 62 -8 3 -4 18 -3
33 3 15 6 62 12 105 13 97 3 122 20 113 77 -4 22 1 59 11 95 11 36 18 92 18
150 0 88 -1 93 -29 122 -17 17 -40 31 -52 31 -28 0 -33 14 -50 124 -12 80 -26
120 -67 206 -7 14 -29 33 -50 43 -21 11 -37 26 -37 36 0 9 -5 22 -12 29 -8 8
-1 24 30 65 44 56 55 110 30 135 -9 9 -9 15 0 24 30 30 3 98 -39 98 -10 0 -29
11 -41 25 -12 14 -24 25 -28 25 -3 0 -30 -19 -60 -41 l-55 -41 -5 45 c-6 48
-21 73 -51 82 -11 4 -19 15 -19 29 0 28 -26 53 -60 58 -31 4 -38 39 -16 73 9
13 12 26 7 30 -5 3 -12 1 -16 -5z"/>
<path d="M13392 5293 c-18 -21 -34 -47 -36 -58 -3 -11 -11 -52 -20 -91 -9 -40
-16 -80 -16 -90 0 -11 -7 -28 -15 -38 -22 -30 -19 -66 5 -66 25 0 42 38 66
145 11 51 28 94 46 119 30 42 35 72 15 99 -11 16 -15 14 -45 -20z"/>
<path d="M13950 5161 c-39 -24 -122 -51 -153 -51 -19 0 -40 -7 -47 -15 -7 -8
-27 -15 -45 -15 -27 0 -41 -10 -83 -59 -41 -47 -60 -61 -90 -66 -42 -7 -53
-20 -82 -99 -23 -60 -108 -156 -138 -156 -11 0 -25 -6 -31 -14 -6 -7 -24 -16
-39 -20 -16 -3 -42 -26 -67 -57 -42 -54 -84 -83 -108 -73 -8 3 -35 -12 -61
-35 -44 -38 -59 -45 -110 -53 -10 -2 -24 -11 -29 -20 -15 -23 28 -114 62 -135
15 -8 35 -29 46 -46 34 -52 67 -70 137 -72 64 -3 91 -9 118 -26 8 -5 21 -12
28 -15 13 -6 67 6 122 28 21 8 28 6 45 -16 31 -38 76 -35 109 6 20 26 28 30
38 20 21 -21 82 -15 106 11 18 19 22 35 22 83 0 59 1 60 33 69 25 8 33 16 35
38 3 21 9 27 26 27 41 0 51 24 32 73 -18 48 -21 87 -6 87 6 0 16 11 22 25 18
39 87 75 150 77 29 1 61 5 71 10 13 7 25 3 46 -15 51 -43 149 -41 176 3 3 5
29 10 56 10 46 0 51 3 67 31 9 18 25 39 35 48 9 8 17 20 17 26 0 6 10 15 23
20 18 8 22 18 22 54 0 29 -5 46 -15 51 -8 4 -26 13 -40 20 -25 14 -71 37 -102
52 -10 4 -24 8 -33 8 -8 0 -29 9 -47 20 -18 11 -46 20 -63 20 -37 0 -50 9 -59
37 -10 31 -92 103 -118 103 -13 0 -32 2 -43 5 -11 2 -27 0 -35 -4z"/>
<path d="M3510 4856 c0 -14 -4 -28 -10 -31 -16 -10 -12 -31 17 -74 39 -59 58
-51 59 24 0 47 -4 65 -19 83 -27 29 -47 28 -47 -2z"/>
<path d="M9195 4860 c-3 -6 -15 -10 -26 -10 -24 0 -39 -36 -39 -90 0 -22 -5
-50 -11 -64 -9 -20 -9 -29 2 -42 7 -9 13 -32 14 -52 0 -44 17 -51 50 -18 24
24 26 25 54 8 28 -16 30 -15 70 11 22 15 45 27 50 27 31 0 18 63 -24 120 -14
19 -25 43 -25 54 -1 34 -31 61 -72 63 -20 2 -40 -2 -43 -7z"/>
<path d="M14591 4664 c-18 -13 -27 -14 -44 -5 -37 18 -117 8 -138 -18 -25 -30
-84 -60 -107 -54 -10 2 -24 -3 -31 -11 -8 -9 -23 -16 -35 -16 -27 0 -37 -8
-65 -48 -13 -18 -34 -37 -47 -42 -32 -13 -39 -50 -24 -132 13 -68 35 -98 60
-83 19 11 59 -29 60 -58 0 -20 6 -30 19 -34 12 -3 21 -15 23 -32 2 -20 9 -27
31 -29 33 -4 60 16 77 58 11 28 36 37 123 45 15 2 46 16 69 32 22 15 51 35 65
43 13 8 27 26 30 40 11 42 5 240 -7 255 -5 6 -10 30 -12 54 -3 51 -14 58 -47
35z"/>
<path d="M7764 4609 c-3 -5 -18 -9 -34 -9 -16 0 -35 -6 -43 -14 -8 -8 -38 -16
-67 -17 -47 -3 -55 0 -63 19 -6 12 -13 22 -17 22 -16 0 -29 -28 -27 -55 1 -22
-4 -32 -23 -41 -39 -20 -49 -41 -39 -77 7 -24 5 -35 -8 -49 -23 -25 -11 -87
22 -115 21 -19 38 -23 91 -23 43 0 73 -5 90 -16 17 -12 36 -15 64 -10 39 6 40
6 40 -24 0 -42 38 -60 75 -36 22 14 25 22 19 50 -4 22 -1 42 9 57 8 13 18 41
21 62 5 28 14 40 32 47 13 5 24 13 24 18 0 5 11 14 26 20 14 7 30 25 35 41 6
16 17 32 25 35 17 6 19 47 3 63 -6 6 -17 22 -23 35 -11 22 -17 23 -119 25 -59
0 -110 -3 -113 -8z"/>
<path d="M15800 4572 c-25 -17 -62 -46 -83 -65 -39 -36 -42 -36 -144 -37 -21
0 -54 -8 -73 -17 -19 -9 -46 -16 -60 -14 -14 1 -34 -6 -45 -17 -11 -10 -38
-27 -60 -38 -31 -14 -40 -25 -40 -44 0 -16 6 -26 18 -28 10 -2 51 -37 92 -79
68 -70 75 -74 105 -68 17 4 36 2 43 -3 7 -5 50 -12 97 -16 46 -4 87 -12 91
-18 4 -6 45 -11 98 -12 84 -2 97 1 144 26 37 21 59 27 79 23 25 -6 28 -4 28
17 0 28 40 69 87 89 17 7 36 23 42 36 6 12 28 31 51 43 42 22 50 43 27 74 -12
16 -16 17 -35 5 -18 -11 -24 -11 -40 4 -21 19 -49 22 -86 7 -34 -12 -62 -1
-109 44 -21 20 -42 36 -45 36 -4 0 -16 16 -26 35 -11 19 -27 35 -36 35 -10 0
-30 3 -46 6 -22 4 -41 -2 -74 -24z"/>
<path d="M4725 4500 c-11 -18 4 -45 40 -68 19 -12 35 -29 35 -36 0 -28 -20
-66 -34 -66 -34 0 -34 -64 -1 -86 33 -22 32 -39 -4 -54 -64 -26 -46 -113 26
-125 94 -15 105 -43 49 -128 -18 -29 -47 -79 -65 -112 -17 -33 -49 -84 -72
-113 -55 -74 -51 -96 18 -100 71 -4 100 14 166 101 32 42 63 74 73 74 10 0 25
10 33 22 9 12 35 45 59 72 30 36 42 59 42 82 0 18 7 41 15 51 8 11 15 32 15
47 0 25 -12 48 -99 195 -32 53 -154 180 -223 231 -34 24 -63 30 -73 13z"/>
<path d="M14870 4460 c-12 -12 -20 -33 -20 -55 0 -19 -9 -52 -20 -73 -19 -37
-20 -42 -5 -98 8 -32 15 -90 15 -129 0 -63 3 -74 25 -95 14 -13 25 -29 25 -36
0 -17 67 -46 90 -39 11 4 29 -1 42 -9 28 -20 57 -20 77 -2 24 21 52 22 90 2
43 -23 84 -17 163 24 33 17 92 38 132 46 135 28 186 48 186 73 0 40 -24 46
-118 28 -98 -19 -168 -22 -177 -7 -3 6 -24 10 -45 10 -42 0 -105 43 -96 65 2
7 -1 21 -9 32 -7 10 -15 30 -17 43 -2 15 -14 30 -30 38 -22 10 -28 20 -28 45
-1 24 -12 45 -45 80 -36 39 -49 47 -79 47 -20 0 -53 7 -73 15 -47 20 -59 19
-83 -5z"/>
<path d="M3527 4342 c-80 -29 -113 -116 -67 -175 11 -14 20 -30 20 -35 0 -17
30 -42 50 -42 10 0 46 16 80 35 34 19 67 35 74 35 7 0 22 -11 34 -25 28 -32
90 -35 117 -5 10 11 31 20 46 20 l27 0 -3 -62 c-3 -35 -9 -81 -14 -103 -15
-56 -13 -108 3 -130 13 -18 18 -18 87 -5 41 7 93 24 117 37 23 12 51 23 60 23
11 0 27 17 40 43 12 23 31 56 42 72 41 62 45 75 31 98 -10 15 -11 22 -2 25 6
2 11 10 11 18 0 8 17 30 37 49 l37 34 -19 22 c-18 19 -27 21 -90 16 -38 -2
-90 -12 -115 -22 -82 -32 -112 -31 -143 4 -15 17 -35 31 -45 31 -9 0 -33 11
-53 24 -32 22 -49 25 -175 30 -117 5 -146 3 -187 -12z"/>
<path d="M16495 4279 c-22 -5 -61 -25 -86 -44 -42 -30 -48 -39 -53 -82 -8 -66
-2 -116 18 -144 9 -13 16 -43 16 -66 0 -51 9 -53 61 -17 44 30 64 58 76 105 7
25 18 39 46 53 28 13 40 26 44 48 3 18 15 33 28 38 42 16 39 71 -4 85 -11 3
-22 12 -25 20 -6 17 -57 18 -121 4z"/>
<path d="M11898 4203 c7 -3 16 -2 19 1 4 3 -2 6 -13 5 -11 0 -14 -3 -6 -6z"/>
<path d="M12043 4192 c-17 -17 -9 -29 9 -15 7 6 27 9 43 7 72 -9 100 -15 109
-24 6 -6 18 -10 29 -10 14 0 17 -5 12 -20 -4 -14 -1 -22 10 -26 18 -7 20 -6
29 21 5 16 -1 24 -27 37 -42 22 -107 39 -120 31 -6 -3 -7 -1 -3 6 11 17 -73
11 -91 -7z"/>
<path d="M16803 4155 c-29 -26 -57 -62 -67 -85 -9 -22 -23 -43 -31 -46 -8 -4
-15 -14 -15 -23 0 -33 193 -64 233 -38 12 8 38 17 58 21 21 3 49 16 64 27 22
18 25 26 19 53 -4 17 -8 42 -8 56 -1 20 -8 25 -41 32 -22 5 -47 16 -55 26 -10
11 -31 18 -61 20 -40 1 -50 -3 -96 -43z"/>
<path d="M4392 4158 c-7 -7 -12 -33 -12 -59 0 -26 -5 -51 -10 -54 -6 -4 -8
-11 -5 -16 3 -5 -2 -26 -12 -46 -11 -24 -18 -61 -18 -98 0 -57 1 -60 25 -60
22 0 27 7 38 54 7 29 25 71 39 93 18 26 28 57 31 94 4 47 1 58 -18 79 -26 28
-40 31 -58 13z"/>
<path d="M12336 4148 c2 -13 8 -39 13 -58 l9 -35 1 42 c1 54 14 61 42 22 16
-24 20 -36 12 -48 -12 -20 -6 -41 13 -41 8 0 14 9 14 21 0 33 25 16 28 -19 2
-24 8 -32 23 -32 23 0 27 45 4 54 -17 6 -21 56 -5 56 6 0 10 -11 10 -24 0 -15
7 -26 19 -29 13 -3 18 0 15 8 -3 7 2 15 10 18 14 5 16 -4 16 -58 0 -37 4 -65
10 -65 6 0 10 -6 10 -14 0 -31 62 -35 93 -5 l22 20 3 -20 c4 -24 32 -29 32 -6
0 8 -4 15 -10 15 -11 0 -14 33 -3 43 10 11 53 -34 53 -55 0 -11 7 -18 19 -18
15 0 19 10 24 63 3 34 9 70 12 79 5 13 -8 20 -67 38 -40 12 -93 28 -118 36
-24 8 -76 17 -115 19 -38 3 -98 8 -131 10 -59 5 -61 4 -58 -17z m264 -82 c0
-3 -4 -8 -10 -11 -5 -3 -10 -1 -10 4 0 6 5 11 10 11 6 0 10 -2 10 -4z m33 -30
c12 4 17 1 17 -10 0 -9 7 -16 15 -16 16 0 18 -14 6 -44 -5 -14 -10 -16 -15 -8
-4 7 -5 16 -1 21 3 5 1 12 -5 16 -5 3 -10 -3 -10 -15 0 -12 -4 -19 -9 -16 -5
4 -7 -4 -3 -16 3 -14 2 -19 -6 -14 -7 4 -12 16 -12 27 0 11 -7 19 -16 19 -8 0
-13 4 -10 9 3 5 16 6 28 3 22 -5 22 -5 5 21 -9 14 -17 30 -17 34 0 4 4 2 8 -5
5 -7 16 -10 25 -6z"/>
<path d="M12155 4140 c-3 -5 -1 -10 4 -10 6 0 11 5 11 10 0 6 -2 10 -4 10 -3
0 -8 -4 -11 -10z"/>
<path d="M11562 4127 c-17 -21 -12 -50 6 -38 8 4 12 19 10 31 -3 21 -4 22 -16
7z"/>
<path d="M11465 4050 c-3 -5 1 -10 10 -10 9 0 13 5 10 10 -3 6 -8 10 -10 10
-2 0 -7 -4 -10 -10z"/>
<path d="M13355 3800 c-5 -8 -23 -11 -51 -7 -23 2 -46 1 -51 -3 -4 -4 -35 -13
-68 -20 -33 -7 -62 -15 -65 -19 -3 -4 -21 -17 -40 -30 -23 -15 -28 -20 -12
-16 13 4 22 2 22 -4 0 -6 -15 -11 -34 -11 -28 0 -35 -4 -40 -25 -9 -36 0 -45
45 -45 46 0 83 -27 73 -53 -3 -10 -1 -17 4 -17 6 0 12 15 14 33 3 30 6 32 43
35 43 3 111 -30 100 -48 -4 -6 7 -10 24 -10 16 0 32 -4 35 -9 9 -14 -4 -40
-18 -35 -7 3 -12 -6 -14 -20 -1 -16 5 -25 18 -29 16 -4 20 0 20 23 0 19 6 29
19 33 25 6 41 -10 42 -43 2 -24 2 -24 6 -2 3 16 9 22 20 18 9 -4 25 1 35 11
19 17 20 17 13 -20 -6 -31 -4 -37 10 -37 14 0 16 9 13 63 -3 60 -2 62 21 61
21 -1 22 1 7 11 -23 17 -20 42 13 103 l30 53 -22 13 c-12 7 -33 20 -47 28 -34
21 -155 33 -165 18z"/>
<path d="M13670 3705 c0 -13 7 -28 16 -33 14 -8 12 -10 -11 -16 -19 -5 -31 -3
-36 6 -5 7 -9 9 -10 3 0 -5 -3 -21 -6 -35 -10 -52 -14 -160 -6 -160 5 0 14 5
21 12 7 7 12 8 12 4 0 -5 7 -3 16 5 11 9 17 10 23 1 4 -6 31 -11 64 -11 l57 1
27 57 c14 31 29 57 32 58 3 2 4 25 3 53 l-4 50 -60 0 c-32 0 -69 5 -80 11 -16
8 -19 8 -13 -1 4 -7 1 -16 -6 -21 -21 -13 -35 -11 -21 3 16 16 15 25 -3 32
-11 4 -15 -1 -15 -19z m90 -35 c0 -5 -9 -10 -20 -10 -11 0 -20 5 -20 10 0 6 9
10 20 10 11 0 20 -4 20 -10z m83 -17 c-7 -2 -19 -2 -25 0 -7 3 -2 5 12 5 14 0
19 -2 13 -5z m7 -33 c0 -5 -14 -10 -31 -10 -17 0 -28 4 -24 10 3 6 17 10 31
10 13 0 24 -4 24 -10z m-203 -45 c0 -8 -4 -12 -9 -9 -4 3 -8 9 -8 15 0 5 4 9
8 9 5 0 9 -7 9 -15z m193 11 c0 -3 -4 -8 -10 -11 -5 -3 -10 -1 -10 4 0 6 5 11
10 11 6 0 10 -2 10 -4z m-180 -46 c0 -5 -5 -10 -11 -10 -5 0 -7 5 -4 10 3 6 8
10 11 10 2 0 4 -4 4 -10z"/>
<path d="M5375 3674 c-109 -28 -169 -65 -201 -125 -10 -21 -23 -28 -56 -32
-60 -6 -120 -31 -136 -56 -8 -12 -20 -21 -28 -21 -19 0 -134 -98 -134 -115 0
-8 11 -22 25 -31 23 -15 27 -15 62 4 126 68 131 70 196 65 73 -6 100 10 142
82 30 50 37 53 119 62 34 3 70 12 81 19 34 24 98 18 123 -11 12 -14 32 -26 44
-26 46 -3 94 3 120 17 24 12 31 11 75 -13 26 -15 69 -42 94 -60 26 -18 52 -33
58 -33 7 0 24 -9 39 -19 15 -11 47 -21 72 -23 40 -3 45 0 48 18 2 17 -6 26
-37 40 -28 13 -41 25 -41 39 0 26 -87 121 -123 134 -15 6 -57 15 -93 21 -59
10 -69 9 -104 -11 -48 -27 -72 -22 -142 33 -49 39 -58 43 -118 45 -36 1 -74
-1 -85 -3z"/>
<path d="M13573 3525 c0 -33 2 -45 4 -27 2 18 2 45 0 60 -2 15 -4 0 -4 -33z"/>
<path d="M13208 3529 c-4 -26 -2 -28 20 -22 21 5 24 3 19 -11 -4 -10 -1 -16 8
-16 9 0 15 10 15 25 0 14 -5 25 -11 25 -8 0 -8 4 0 13 8 11 5 14 -18 14 -24 0
-30 -5 -33 -28z"/>
<path d="M11160 3160 c0 -5 5 -10 11 -10 5 0 7 5 4 10 -3 6 -8 10 -11 10 -2 0
-4 -4 -4 -10z"/>
<path d="M11224 3084 c3 -9 6 -20 6 -25 0 -5 7 -9 15 -9 12 0 13 4 3 25 -12
27 -34 35 -24 9z"/>
<path d="M11230 3009 c0 -5 5 -7 10 -4 6 3 10 8 10 11 0 2 -4 4 -10 4 -5 0
-10 -5 -10 -11z"/>
<path d="M12497 2573 c-13 -13 -7 -21 13 -16 11 3 20 9 20 14 0 10 -24 12 -33
2z"/>
<path d="M18130 2394 c0 -8 5 -12 10 -9 6 3 10 10 10 16 0 5 -4 9 -10 9 -5 0
-10 -7 -10 -16z"/>
<path d="M13805 2340 c4 -6 11 -8 16 -5 14 9 11 15 -7 15 -8 0 -12 -5 -9 -10z"/>
<path d="M13896 2322 c-3 -5 1 -9 9 -9 8 0 12 4 9 9 -3 4 -7 8 -9 8 -2 0 -6
-4 -9 -8z"/>
<path d="M14370 2316 c0 -9 -4 -16 -10 -16 -5 0 -10 5 -10 10 0 6 -3 10 -7 10
-5 0 -8 -11 -8 -25 0 -22 5 -25 33 -25 25 0 32 4 32 19 0 10 -7 24 -15 31 -12
10 -15 10 -15 -4z"/>
<path d="M14045 2300 c-3 -5 -2 -10 4 -10 5 0 13 5 16 10 3 6 2 10 -4 10 -5 0
-13 -4 -16 -10z"/>
<path d="M14505 2280 c-3 -5 1 -10 10 -10 9 0 13 5 10 10 -3 6 -8 10 -10 10
-2 0 -7 -4 -10 -10z"/>
<path d="M14780 2284 c0 -11 45 -43 60 -44 13 0 13 1 0 10 -8 5 -10 10 -5 10
6 0 -3 7 -19 15 -31 17 -36 18 -36 9z"/>
<path d="M15210 2249 c0 -5 14 -9 32 -9 36 0 31 12 -7 16 -14 1 -25 -2 -25 -7z"/>
<path d="M15345 2250 c-3 -5 1 -10 10 -10 9 0 13 5 10 10 -3 6 -8 10 -10 10
-2 0 -7 -4 -10 -10z"/>
<path d="M14883 2243 c9 -2 23 -2 30 0 6 3 -1 5 -18 5 -16 0 -22 -2 -12 -5z"/>
<path d="M19156 2194 c-3 -8 1 -14 9 -14 20 0 28 17 11 23 -8 3 -17 -1 -20 -9z"/>
</g>
</svg>
